<svg width="185" height="25" viewBox="0 0 185 25" fill="none" xmlns="http://www.w3.org/2000/svg">
<path d="M0.0554422 19.2719V6.18094H3.00431V8.40537H3.15771C3.43044 7.65537 3.88215 7.07015 4.51283 6.64969C5.14351 6.22356 5.89635 6.01049 6.77135 6.01049C7.65771 6.01049 8.40487 6.2264 9.01283 6.65821C9.62647 7.08435 10.0583 7.66674 10.3083 8.40537H10.4446C10.7344 7.6781 11.2231 7.09856 11.9106 6.66674C12.6037 6.22924 13.4248 6.01049 14.3736 6.01049C15.5782 6.01049 16.5611 6.39117 17.3225 7.15253C18.0839 7.9139 18.4645 9.02469 18.4645 10.4849V19.2719H15.3708V10.9622C15.3708 10.1497 15.1549 9.55594 14.7231 9.18094C14.2912 8.80026 13.7628 8.60992 13.1378 8.60992C12.3935 8.60992 11.8111 8.84287 11.3907 9.30878C10.9759 9.76901 10.7685 10.3684 10.7685 11.1071V19.2719H7.74294V10.8344C7.74294 10.1582 7.5384 9.61844 7.12931 9.21503C6.7259 8.81162 6.19749 8.60992 5.54408 8.60992C5.1009 8.60992 4.69749 8.72355 4.33385 8.95083C3.97022 9.17242 3.68044 9.48776 3.46453 9.89685C3.24862 10.3003 3.14067 10.7719 3.14067 11.3116V19.2719H0.0554422ZM21.5945 19.2719V6.18094H24.6797V19.2719H21.5945ZM23.1456 4.32299C22.657 4.32299 22.2366 4.16106 21.8843 3.83719C21.532 3.50765 21.3559 3.11276 21.3559 2.65253C21.3559 2.18662 21.532 1.79174 21.8843 1.46787C22.2366 1.13833 22.657 0.973555 23.1456 0.973555C23.64 0.973555 24.0604 1.13833 24.407 1.46787C24.7593 1.79174 24.9354 2.18662 24.9354 2.65253C24.9354 3.11276 24.7593 3.50765 24.407 3.83719C24.0604 4.16106 23.64 4.32299 23.1456 4.32299ZM30.6648 15.1639L30.6563 11.4395H31.1506L35.8552 6.18094H39.4603L33.6733 12.6241H33.0341L30.6648 15.1639ZM27.8523 19.2719V1.8173H30.9375V19.2719H27.8523ZM36.0682 19.2719L31.8069 13.3145L33.8864 11.1412L39.7586 19.2719H36.0682ZM46.7728 19.5275C45.4603 19.5275 44.3267 19.2548 43.3722 18.7094C42.4233 18.1582 41.6932 17.3798 41.1819 16.3741C40.6705 15.3628 40.4148 14.1724 40.4148 12.8031C40.4148 11.4565 40.6705 10.2747 41.1819 9.25765C41.6989 8.23492 42.4205 7.43946 43.3466 6.87128C44.2728 6.29742 45.3608 6.01049 46.6108 6.01049C47.4177 6.01049 48.179 6.14117 48.8949 6.40253C49.6165 6.65821 50.2529 7.05594 50.804 7.59571C51.3608 8.13549 51.7983 8.82299 52.1165 9.65821C52.4347 10.4878 52.5938 11.4764 52.5938 12.6241V13.5701H41.8637V11.4906H49.6364C49.6307 10.8997 49.5029 10.3741 49.2529 9.9139C49.0029 9.44799 48.6535 9.08151 48.2046 8.81446C47.7614 8.54742 47.2444 8.4139 46.6535 8.4139C46.0228 8.4139 45.4688 8.5673 44.9915 8.87412C44.5142 9.17526 44.1421 9.57299 43.875 10.0673C43.6137 10.5559 43.4802 11.0929 43.4745 11.6781V13.4934C43.4745 14.2548 43.6137 14.9082 43.8921 15.4537C44.1705 15.9934 44.5597 16.4082 45.0597 16.698C45.5597 16.9821 46.1449 17.1241 46.8154 17.1241C47.2642 17.1241 47.6705 17.0616 48.0341 16.9366C48.3978 16.8059 48.7131 16.6156 48.9802 16.3656C49.2472 16.1156 49.4489 15.8059 49.5853 15.4366L52.466 15.7605C52.2841 16.5219 51.9375 17.1866 51.4262 17.7548C50.9205 18.3173 50.2728 18.7548 49.483 19.0673C48.6932 19.3741 47.7898 19.5275 46.7728 19.5275ZM66.1726 24.1639C64.3829 24.1639 62.7919 23.9196 61.3999 23.4309C60.0135 22.948 58.8431 22.2349 57.8885 21.2917C56.934 20.3542 56.2096 19.2094 55.7152 17.8571C55.2209 16.5048 54.9709 14.9594 54.9652 13.2207C54.9709 11.5219 55.2238 9.9906 55.7238 8.62696C56.2238 7.25765 56.9539 6.08719 57.9141 5.1156C58.8743 4.13833 60.0476 3.38833 61.434 2.8656C62.8204 2.34287 64.3971 2.08151 66.1641 2.08151C67.8289 2.08151 69.3033 2.33435 70.5874 2.84003C71.8772 3.34571 72.9652 4.05026 73.8516 4.95367C74.7437 5.8514 75.4169 6.90253 75.8715 8.10708C76.3317 9.30594 76.5618 10.6071 76.5618 12.0105C76.5618 12.9821 76.488 13.9025 76.3402 14.7719C76.1925 15.6355 75.9397 16.4025 75.5817 17.073C75.2294 17.7434 74.7493 18.2775 74.1414 18.6753C73.5334 19.0673 72.7721 19.2804 71.8573 19.3145C71.2834 19.3429 70.7806 19.2889 70.3488 19.1525C69.9169 19.0162 69.5675 18.8031 69.3005 18.5133C69.0391 18.2179 68.8743 17.8571 68.8062 17.4309H68.7039C68.5732 17.7719 68.326 18.0844 67.9624 18.3684C67.6044 18.6469 67.1613 18.8656 66.6329 19.0247C66.1044 19.1781 65.5164 19.2406 64.8687 19.2122C64.1755 19.1781 63.5334 19.019 62.9425 18.7349C62.3573 18.4451 61.8459 18.0417 61.4084 17.5247C60.9766 17.002 60.6414 16.3713 60.4027 15.6326C60.1641 14.894 60.0448 14.0559 60.0448 13.1184C60.0448 12.2037 60.1755 11.3969 60.4368 10.698C60.6982 9.99912 61.0476 9.40253 61.4851 8.90821C61.9283 8.4139 62.4283 8.02753 62.9851 7.74912C63.5419 7.46503 64.1158 7.28321 64.7067 7.20367C65.3204 7.11844 65.8971 7.12696 66.4368 7.22924C66.9766 7.33151 67.4255 7.48776 67.7834 7.69799C68.1471 7.90821 68.3743 8.13833 68.4652 8.38833H68.5846V7.43378H70.9624V15.5474C70.9681 15.9736 71.0704 16.3173 71.2692 16.5787C71.4738 16.84 71.7579 16.9707 72.1215 16.9707C72.576 16.9707 72.9425 16.7917 73.2209 16.4338C73.505 16.0701 73.7096 15.5133 73.8346 14.7633C73.9652 14.0076 74.0277 13.0417 74.0221 11.8656C74.0277 10.8997 73.8999 10.0247 73.6385 9.2406C73.3829 8.45083 73.0192 7.75765 72.5476 7.16105C72.076 6.56446 71.5107 6.0673 70.8516 5.66958C70.1982 5.26617 69.4709 4.96219 68.6698 4.75765C67.8687 4.5531 67.0135 4.45083 66.1044 4.45083C64.7124 4.45083 63.488 4.6639 62.4312 5.09003C61.3743 5.51049 60.488 6.10992 59.7721 6.88833C59.0618 7.66674 58.5249 8.59003 58.1613 9.65821C57.8033 10.7207 57.6243 11.8969 57.6243 13.1866C57.6243 14.5673 57.8118 15.7917 58.1868 16.8599C58.5675 17.9224 59.1243 18.8173 59.8573 19.5446C60.5902 20.2719 61.4965 20.823 62.576 21.198C63.6613 21.573 64.9084 21.7605 66.3175 21.7605C66.9652 21.7605 67.5988 21.7094 68.2181 21.6071C68.8374 21.5048 69.3942 21.3855 69.8885 21.2491C70.3829 21.1128 70.7635 20.9934 71.0306 20.8912L71.755 23.0559C71.4027 23.2378 70.9255 23.4139 70.3232 23.5844C69.7266 23.7548 69.0675 23.894 68.3459 24.002C67.63 24.1099 66.9056 24.1639 66.1726 24.1639ZM65.576 16.7662C66.2976 16.7662 66.8743 16.627 67.3062 16.3486C67.738 16.0645 68.0476 15.644 68.2351 15.0872C68.4226 14.5304 68.5135 13.8372 68.5079 13.0076C68.5079 12.2349 68.4113 11.6014 68.2181 11.1071C68.0249 10.6128 67.7152 10.2463 67.2891 10.0076C66.863 9.76901 66.2976 9.64969 65.5931 9.64969C64.9567 9.64969 64.4141 9.79458 63.9652 10.0844C63.5221 10.3741 63.1812 10.7747 62.9425 11.2861C62.7096 11.7917 62.5931 12.3684 62.5931 13.0162C62.5931 13.6639 62.6868 14.2747 62.8743 14.8486C63.0675 15.4167 63.38 15.8798 63.8118 16.2378C64.2493 16.59 64.8374 16.7662 65.576 16.7662ZM81.9929 15.1639L81.9844 11.4395H82.4787L87.1833 6.18094H90.7884L85.0015 12.6241H84.3623L81.9929 15.1639ZM79.1804 19.2719V1.8173H82.2657V19.2719H79.1804ZM87.3964 19.2719L83.135 13.3145L85.2145 11.1412L91.0867 19.2719H87.3964ZM98.8701 1.57867C99.7053 1.58435 100.518 1.73208 101.308 2.02185C102.103 2.30594 102.819 2.77185 103.455 3.41958C104.092 4.06162 104.597 4.92242 104.972 6.00196C105.347 7.08151 105.535 8.41674 105.535 10.0076C105.541 11.5076 105.381 12.8486 105.058 14.0304C104.739 15.2065 104.282 16.2008 103.685 17.0133C103.089 17.8258 102.37 18.4451 101.529 18.8713C100.688 19.2974 99.7422 19.5105 98.6911 19.5105C97.5888 19.5105 96.6116 19.2946 95.7593 18.8628C94.9127 18.4309 94.228 17.84 93.7053 17.09C93.1826 16.34 92.8616 15.4821 92.7422 14.5162H95.853C96.0121 15.2094 96.336 15.7605 96.8246 16.1696C97.3189 16.573 97.9411 16.7747 98.6911 16.7747C99.9013 16.7747 100.833 16.2491 101.487 15.198C102.14 14.1469 102.467 12.6866 102.467 10.8173H102.347C102.069 11.3173 101.708 11.7491 101.265 12.1128C100.822 12.4707 100.319 12.7463 99.7564 12.9395C99.1996 13.1326 98.6087 13.2292 97.9837 13.2292C96.961 13.2292 96.0405 12.9849 95.2223 12.4963C94.4098 12.0076 93.765 11.3372 93.2877 10.4849C92.8161 9.63265 92.5775 8.65821 92.5718 7.56162C92.5718 6.42526 92.8331 5.40537 93.3559 4.50196C93.8843 3.59287 94.6201 2.87696 95.5633 2.35424C96.5064 1.82583 97.6087 1.5673 98.8701 1.57867ZM98.8786 4.13549C98.265 4.13549 97.711 4.28606 97.2167 4.58719C96.728 4.88265 96.3417 5.28606 96.0576 5.79742C95.7792 6.3031 95.64 6.86844 95.64 7.49344C95.6456 8.11276 95.7848 8.67526 96.0576 9.18094C96.336 9.68662 96.7138 10.0872 97.1911 10.3826C97.6741 10.6781 98.2252 10.8258 98.8445 10.8258C99.3047 10.8258 99.7337 10.7378 100.131 10.5616C100.529 10.3855 100.876 10.1412 101.171 9.82867C101.472 9.51049 101.705 9.14969 101.87 8.74628C102.041 8.34287 102.123 7.91674 102.117 7.46787C102.117 6.87128 101.975 6.32015 101.691 5.81446C101.413 5.30878 101.029 4.90253 100.541 4.59571C100.058 4.2889 99.5036 4.13549 98.8786 4.13549ZM114.944 6.18094V8.5673H107.418V6.18094H114.944ZM109.276 3.04458H112.362V15.3344C112.362 15.7491 112.424 16.0673 112.549 16.2889C112.68 16.5048 112.85 16.6525 113.06 16.7321C113.271 16.8116 113.504 16.8514 113.759 16.8514C113.952 16.8514 114.129 16.8372 114.288 16.8088C114.452 16.7804 114.577 16.7548 114.663 16.7321L115.183 19.144C115.018 19.2008 114.782 19.2633 114.475 19.3315C114.174 19.3997 113.805 19.4395 113.367 19.4508C112.595 19.4736 111.898 19.3571 111.279 19.1014C110.66 18.84 110.168 18.4366 109.805 17.8912C109.447 17.3457 109.271 16.6639 109.276 15.8457V3.04458ZM120.047 6.18094L122.689 11.0133L125.374 6.18094H128.638L124.692 12.7264L128.706 19.2719H125.459L122.689 14.5588L119.945 19.2719H116.672L120.661 12.7264L116.774 6.18094H120.047ZM132.925 19.4594C132.408 19.4594 131.965 19.2775 131.595 18.9139C131.226 18.5503 131.044 18.1071 131.05 17.5844C131.044 17.073 131.226 16.6355 131.595 16.2719C131.965 15.9082 132.408 15.7264 132.925 15.7264C133.425 15.7264 133.859 15.9082 134.229 16.2719C134.604 16.6355 134.794 17.073 134.8 17.5844C134.794 17.9309 134.703 18.2463 134.527 18.5304C134.357 18.8145 134.129 19.0417 133.845 19.2122C133.567 19.377 133.26 19.4594 132.925 19.4594ZM143.695 19.5275C142.389 19.5275 141.266 19.2406 140.329 18.6667C139.397 18.0929 138.678 17.3003 138.173 16.2889C137.673 15.2719 137.423 14.1014 137.423 12.7775C137.423 11.448 137.678 10.2747 138.19 9.25765C138.701 8.23492 139.423 7.43946 140.354 6.87128C141.292 6.29742 142.4 6.01049 143.678 6.01049C144.741 6.01049 145.681 6.20651 146.499 6.59855C147.323 6.98492 147.979 7.53321 148.468 8.24344C148.957 8.94799 149.235 9.77185 149.303 10.715H146.354C146.235 10.0844 145.951 9.55878 145.502 9.13833C145.059 8.71219 144.465 8.49912 143.721 8.49912C143.09 8.49912 142.536 8.66958 142.059 9.01049C141.582 9.34571 141.21 9.82867 140.943 10.4594C140.681 11.09 140.55 11.8457 140.55 12.7264C140.55 13.6184 140.681 14.3855 140.943 15.0275C141.204 15.6639 141.57 16.1554 142.042 16.502C142.519 16.8429 143.079 17.0133 143.721 17.0133C144.175 17.0133 144.582 16.9281 144.94 16.7576C145.303 16.5815 145.607 16.3287 145.852 15.9991C146.096 15.6696 146.264 15.269 146.354 14.7974H149.303C149.229 15.7236 148.957 16.5446 148.485 17.2605C148.014 17.9707 147.371 18.5275 146.559 18.9309C145.746 19.3287 144.792 19.5275 143.695 19.5275ZM157.547 19.5275C156.269 19.5275 155.161 19.2463 154.223 18.6838C153.286 18.1213 152.558 17.3344 152.041 16.323C151.53 15.3116 151.274 14.1298 151.274 12.7775C151.274 11.4253 151.53 10.2406 152.041 9.22355C152.558 8.20651 153.286 7.41674 154.223 6.85424C155.161 6.29174 156.269 6.01049 157.547 6.01049C158.825 6.01049 159.933 6.29174 160.871 6.85424C161.808 7.41674 162.533 8.20651 163.044 9.22355C163.561 10.2406 163.82 11.4253 163.82 12.7775C163.82 14.1298 163.561 15.3116 163.044 16.323C162.533 17.3344 161.808 18.1213 160.871 18.6838C159.933 19.2463 158.825 19.5275 157.547 19.5275ZM157.564 17.0559C158.257 17.0559 158.837 16.8656 159.303 16.4849C159.769 16.0986 160.115 15.5815 160.342 14.9338C160.575 14.2861 160.692 13.5645 160.692 12.769C160.692 11.9679 160.575 11.2434 160.342 10.5957C160.115 9.94231 159.769 9.42242 159.303 9.03605C158.837 8.64969 158.257 8.45651 157.564 8.45651C156.854 8.45651 156.263 8.64969 155.791 9.03605C155.325 9.42242 154.976 9.94231 154.743 10.5957C154.516 11.2434 154.402 11.9679 154.402 12.769C154.402 13.5645 154.516 14.2861 154.743 14.9338C154.976 15.5815 155.325 16.0986 155.791 16.4849C156.263 16.8656 156.854 17.0559 157.564 17.0559ZM166.438 19.2719V6.18094H169.387V8.40537H169.541C169.813 7.65537 170.265 7.07015 170.896 6.64969C171.526 6.22356 172.279 6.01049 173.154 6.01049C174.041 6.01049 174.788 6.2264 175.396 6.65821C176.009 7.08435 176.441 7.66674 176.691 8.40537H176.827C177.117 7.6781 177.606 7.09856 178.293 6.66674C178.987 6.22924 179.808 6.01049 180.756 6.01049C181.961 6.01049 182.944 6.39117 183.705 7.15253C184.467 7.9139 184.847 9.02469 184.847 10.4849V19.2719H181.754V10.9622C181.754 10.1497 181.538 9.55594 181.106 9.18094C180.674 8.80026 180.146 8.60992 179.521 8.60992C178.776 8.60992 178.194 8.84287 177.773 9.30878C177.359 9.76901 177.151 10.3684 177.151 11.1071V19.2719H174.126V10.8344C174.126 10.1582 173.921 9.61844 173.512 9.21503C173.109 8.81162 172.58 8.60992 171.927 8.60992C171.484 8.60992 171.08 8.72355 170.717 8.95083C170.353 9.17242 170.063 9.48776 169.847 9.89685C169.631 10.3003 169.523 10.7719 169.523 11.3116V19.2719H166.438Z" fill="white"/>
</svg>
