<svg width="185" height="25" viewBox="0 0 185 25" fill="none" xmlns="http://www.w3.org/2000/svg">
<path d="M0.197044 19.2719V6.18094H3.14591V8.40537H3.29932C3.57204 7.65537 4.02375 7.07015 4.65443 6.64969C5.28511 6.22356 6.03795 6.01049 6.91295 6.01049C7.79932 6.01049 8.54648 6.2264 9.15443 6.65821C9.76807 7.08435 10.1999 7.66674 10.4499 8.40537H10.5862C10.876 7.6781 11.3647 7.09856 12.0522 6.66674C12.7453 6.22924 13.5664 6.01049 14.5152 6.01049C15.7198 6.01049 16.7027 6.39117 17.4641 7.15253C18.2255 7.9139 18.6061 9.02469 18.6061 10.4849V19.2719H15.5124V10.9622C15.5124 10.1497 15.2965 9.55594 14.8647 9.18094C14.4328 8.80026 13.9044 8.60992 13.2794 8.60992C12.5351 8.60992 11.9527 8.84287 11.5323 9.30878C11.1175 9.76901 10.9101 10.3684 10.9101 11.1071V19.2719H7.88454V10.8344C7.88454 10.1582 7.68 9.61844 7.27091 9.21503C6.8675 8.81162 6.33909 8.60992 5.68568 8.60992C5.2425 8.60992 4.83909 8.72355 4.47545 8.95083C4.11182 9.17242 3.82204 9.48776 3.60613 9.89685C3.39023 10.3003 3.28227 10.7719 3.28227 11.3116V19.2719H0.197044ZM21.7361 19.2719V6.18094H24.8213V19.2719H21.7361ZM23.2872 4.32299C22.7986 4.32299 22.3782 4.16106 22.0259 3.83719C21.6736 3.50765 21.4975 3.11276 21.4975 2.65253C21.4975 2.18662 21.6736 1.79174 22.0259 1.46787C22.3782 1.13833 22.7986 0.973555 23.2872 0.973555C23.7816 0.973555 24.202 1.13833 24.5486 1.46787C24.9009 1.79174 25.077 2.18662 25.077 2.65253C25.077 3.11276 24.9009 3.50765 24.5486 3.83719C24.202 4.16106 23.7816 4.32299 23.2872 4.32299ZM30.8064 15.1639L30.7979 11.4395H31.2922L35.9968 6.18094H39.6019L33.8149 12.6241H33.1757L30.8064 15.1639ZM27.9939 19.2719V1.8173H31.0791V19.2719H27.9939ZM36.2098 19.2719L31.9485 13.3145L34.028 11.1412L39.9002 19.2719H36.2098ZM46.9144 19.5275C45.6019 19.5275 44.4684 19.2548 43.5138 18.7094C42.5649 18.1582 41.8348 17.3798 41.3235 16.3741C40.8121 15.3628 40.5564 14.1724 40.5564 12.8031C40.5564 11.4565 40.8121 10.2747 41.3235 9.25765C41.8405 8.23492 42.5621 7.43946 43.4882 6.87128C44.4144 6.29742 45.5024 6.01049 46.7524 6.01049C47.5593 6.01049 48.3206 6.14117 49.0365 6.40253C49.7581 6.65821 50.3945 7.05594 50.9456 7.59571C51.5024 8.13549 51.9399 8.82299 52.2581 9.65821C52.5763 10.4878 52.7354 11.4764 52.7354 12.6241V13.5701H42.0053V11.4906H49.778C49.7723 10.8997 49.6445 10.3741 49.3945 9.9139C49.1445 9.44799 48.7951 9.08151 48.3462 8.81446C47.903 8.54742 47.386 8.4139 46.7951 8.4139C46.1644 8.4139 45.6104 8.5673 45.1331 8.87412C44.6559 9.17526 44.2837 9.57299 44.0166 10.0673C43.7553 10.5559 43.6218 11.0929 43.6161 11.6781V13.4934C43.6161 14.2548 43.7553 14.9082 44.0337 15.4537C44.3121 15.9934 44.7013 16.4082 45.2013 16.698C45.7013 16.9821 46.2865 17.1241 46.957 17.1241C47.4059 17.1241 47.8121 17.0616 48.1757 16.9366C48.5394 16.8059 48.8547 16.6156 49.1218 16.3656C49.3888 16.1156 49.5905 15.8059 49.7269 15.4366L52.6076 15.7605C52.4257 16.5219 52.0791 17.1866 51.5678 17.7548C51.0621 18.3173 50.4144 18.7548 49.6246 19.0673C48.8348 19.3741 47.9314 19.5275 46.9144 19.5275ZM66.3142 24.1639C64.5245 24.1639 62.9335 23.9196 61.5415 23.4309C60.1551 22.948 58.9847 22.2349 58.0301 21.2917C57.0756 20.3542 56.3512 19.2094 55.8568 17.8571C55.3625 16.5048 55.1125 14.9594 55.1068 13.2207C55.1125 11.5219 55.3654 9.9906 55.8654 8.62696C56.3654 7.25765 57.0955 6.08719 58.0557 5.1156C59.0159 4.13833 60.1892 3.38833 61.5756 2.8656C62.962 2.34287 64.5387 2.08151 66.3057 2.08151C67.9705 2.08151 69.4449 2.33435 70.729 2.84003C72.0188 3.34571 73.1068 4.05026 73.9932 4.95367C74.8853 5.8514 75.5585 6.90253 76.0131 8.10708C76.4733 9.30594 76.7034 10.6071 76.7034 12.0105C76.7034 12.9821 76.6296 13.9025 76.4818 14.7719C76.3341 15.6355 76.0813 16.4025 75.7233 17.073C75.371 17.7434 74.8909 18.2775 74.283 18.6753C73.675 19.0673 72.9137 19.2804 71.9989 19.3145C71.425 19.3429 70.9222 19.2889 70.4904 19.1525C70.0585 19.0162 69.7091 18.8031 69.4421 18.5133C69.1807 18.2179 69.0159 17.8571 68.9478 17.4309H68.8455C68.7148 17.7719 68.4676 18.0844 68.104 18.3684C67.746 18.6469 67.3029 18.8656 66.7745 19.0247C66.2461 19.1781 65.658 19.2406 65.0103 19.2122C64.3171 19.1781 63.675 19.019 63.0841 18.7349C62.4989 18.4451 61.9875 18.0417 61.55 17.5247C61.1182 17.002 60.783 16.3713 60.5443 15.6326C60.3057 14.894 60.1864 14.0559 60.1864 13.1184C60.1864 12.2037 60.3171 11.3969 60.5784 10.698C60.8398 9.99912 61.1892 9.40253 61.6267 8.90821C62.0699 8.4139 62.5699 8.02753 63.1267 7.74912C63.6835 7.46503 64.2574 7.28321 64.8483 7.20367C65.462 7.11844 66.0387 7.12696 66.5784 7.22924C67.1182 7.33151 67.5671 7.48776 67.925 7.69799C68.2887 7.90821 68.5159 8.13833 68.6068 8.38833H68.7262V7.43378H71.104V15.5474C71.1097 15.9736 71.212 16.3173 71.4108 16.5787C71.6154 16.84 71.8995 16.9707 72.2631 16.9707C72.7176 16.9707 73.0841 16.7917 73.3625 16.4338C73.6466 16.0701 73.8512 15.5133 73.9762 14.7633C74.1068 14.0076 74.1693 13.0417 74.1637 11.8656C74.1693 10.8997 74.0415 10.0247 73.7801 9.2406C73.5245 8.45083 73.1608 7.75765 72.6892 7.16105C72.2176 6.56446 71.6523 6.0673 70.9932 5.66958C70.3398 5.26617 69.6125 4.96219 68.8114 4.75765C68.0103 4.5531 67.1551 4.45083 66.246 4.45083C64.854 4.45083 63.6296 4.6639 62.5728 5.09003C61.5159 5.51049 60.6296 6.10992 59.9137 6.88833C59.2034 7.66674 58.6665 8.59003 58.3029 9.65821C57.9449 10.7207 57.7659 11.8969 57.7659 13.1866C57.7659 14.5673 57.9534 15.7917 58.3284 16.8599C58.7091 17.9224 59.2659 18.8173 59.9989 19.5446C60.7318 20.2719 61.6381 20.823 62.7176 21.198C63.8029 21.573 65.05 21.7605 66.4591 21.7605C67.1068 21.7605 67.7404 21.7094 68.3597 21.6071C68.979 21.5048 69.5358 21.3855 70.0301 21.2491C70.5245 21.1128 70.9051 20.9934 71.1722 20.8912L71.8966 23.0559C71.5443 23.2378 71.0671 23.4139 70.4648 23.5844C69.8682 23.7548 69.2091 23.894 68.4875 24.002C67.7716 24.1099 67.0472 24.1639 66.3142 24.1639ZM65.7176 16.7662C66.4392 16.7662 67.0159 16.627 67.4478 16.3486C67.8796 16.0645 68.1892 15.644 68.3767 15.0872C68.5642 14.5304 68.6551 13.8372 68.6495 13.0076C68.6495 12.2349 68.5529 11.6014 68.3597 11.1071C68.1665 10.6128 67.8568 10.2463 67.4307 10.0076C67.0046 9.76901 66.4392 9.64969 65.7347 9.64969C65.0983 9.64969 64.5557 9.79458 64.1068 10.0844C63.6637 10.3741 63.3228 10.7747 63.0841 11.2861C62.8512 11.7917 62.7347 12.3684 62.7347 13.0162C62.7347 13.6639 62.8284 14.2747 63.0159 14.8486C63.2091 15.4167 63.5216 15.8798 63.9534 16.2378C64.3909 16.59 64.979 16.7662 65.7176 16.7662ZM82.1345 15.1639L82.126 11.4395H82.6203L87.3249 6.18094H90.93L85.1431 12.6241H84.5039L82.1345 15.1639ZM79.322 19.2719V1.8173H82.4073V19.2719H79.322ZM87.538 19.2719L83.2766 13.3145L85.3561 11.1412L91.2283 19.2719H87.538ZM99.0117 1.57867C99.8469 1.58435 100.659 1.73208 101.449 2.02185C102.245 2.30594 102.961 2.77185 103.597 3.41958C104.233 4.06162 104.739 4.92242 105.114 6.00196C105.489 7.08151 105.676 8.41674 105.676 10.0076C105.682 11.5076 105.523 12.8486 105.199 14.0304C104.881 15.2065 104.424 16.2008 103.827 17.0133C103.23 17.8258 102.512 18.4451 101.671 18.8713C100.83 19.2974 99.8838 19.5105 98.8327 19.5105C97.7304 19.5105 96.7532 19.2946 95.9009 18.8628C95.0543 18.4309 94.3696 17.84 93.8469 17.09C93.3242 16.34 93.0032 15.4821 92.8838 14.5162H95.9946C96.1537 15.2094 96.4776 15.7605 96.9662 16.1696C97.4605 16.573 98.0827 16.7747 98.8327 16.7747C100.043 16.7747 100.975 16.2491 101.628 15.198C102.282 14.1469 102.608 12.6866 102.608 10.8173H102.489C102.211 11.3173 101.85 11.7491 101.407 12.1128C100.963 12.4707 100.461 12.7463 99.898 12.9395C99.3412 13.1326 98.7503 13.2292 98.1253 13.2292C97.1026 13.2292 96.1821 12.9849 95.3639 12.4963C94.5514 12.0076 93.9066 11.3372 93.4293 10.4849C92.9577 9.63265 92.7191 8.65821 92.7134 7.56162C92.7134 6.42526 92.9747 5.40537 93.4975 4.50196C94.0259 3.59287 94.7617 2.87696 95.7049 2.35424C96.648 1.82583 97.7503 1.5673 99.0117 1.57867ZM99.0202 4.13549C98.4066 4.13549 97.8526 4.28606 97.3583 4.58719C96.8696 4.88265 96.4833 5.28606 96.1992 5.79742C95.9208 6.3031 95.7816 6.86844 95.7816 7.49344C95.7872 8.11276 95.9264 8.67526 96.1992 9.18094C96.4776 9.68662 96.8554 10.0872 97.3327 10.3826C97.8157 10.6781 98.3668 10.8258 98.9861 10.8258C99.4463 10.8258 99.8753 10.7378 100.273 10.5616C100.671 10.3855 101.017 10.1412 101.313 9.82867C101.614 9.51049 101.847 9.14969 102.012 8.74628C102.182 8.34287 102.265 7.91674 102.259 7.46787C102.259 6.87128 102.117 6.32015 101.833 5.81446C101.554 5.30878 101.171 4.90253 100.682 4.59571C100.199 4.2889 99.6452 4.13549 99.0202 4.13549ZM115.086 6.18094V8.5673H107.56V6.18094H115.086ZM109.418 3.04458H112.503V15.3344C112.503 15.7491 112.566 16.0673 112.691 16.2889C112.821 16.5048 112.992 16.6525 113.202 16.7321C113.412 16.8116 113.645 16.8514 113.901 16.8514C114.094 16.8514 114.27 16.8372 114.429 16.8088C114.594 16.7804 114.719 16.7548 114.804 16.7321L115.324 19.144C115.159 19.2008 114.924 19.2633 114.617 19.3315C114.316 19.3997 113.946 19.4395 113.509 19.4508C112.736 19.4736 112.04 19.3571 111.421 19.1014C110.801 18.84 110.31 18.4366 109.946 17.8912C109.588 17.3457 109.412 16.6639 109.418 15.8457V3.04458ZM120.189 6.18094L122.831 11.0133L125.515 6.18094H128.779L124.833 12.7264L128.848 19.2719H125.6L122.831 14.5588L120.086 19.2719H116.814L120.802 12.7264L116.916 6.18094H120.189ZM133.066 19.4594C132.549 19.4594 132.106 19.2775 131.737 18.9139C131.367 18.5503 131.186 18.1071 131.191 17.5844C131.186 17.073 131.367 16.6355 131.737 16.2719C132.106 15.9082 132.549 15.7264 133.066 15.7264C133.566 15.7264 134.001 15.9082 134.37 16.2719C134.745 16.6355 134.936 17.073 134.941 17.5844C134.936 17.9309 134.845 18.2463 134.669 18.5304C134.498 18.8145 134.271 19.0417 133.987 19.2122C133.708 19.377 133.402 19.4594 133.066 19.4594ZM143.837 19.5275C142.53 19.5275 141.408 19.2406 140.47 18.6667C139.539 18.0929 138.82 17.3003 138.314 16.2889C137.814 15.2719 137.564 14.1014 137.564 12.7775C137.564 11.448 137.82 10.2747 138.331 9.25765C138.843 8.23492 139.564 7.43946 140.496 6.87128C141.434 6.29742 142.542 6.01049 143.82 6.01049C144.882 6.01049 145.823 6.20651 146.641 6.59855C147.465 6.98492 148.121 7.53321 148.61 8.24344C149.098 8.94799 149.377 9.77185 149.445 10.715H146.496C146.377 10.0844 146.093 9.55878 145.644 9.13833C145.201 8.71219 144.607 8.49912 143.863 8.49912C143.232 8.49912 142.678 8.66958 142.201 9.01049C141.723 9.34571 141.351 9.82867 141.084 10.4594C140.823 11.09 140.692 11.8457 140.692 12.7264C140.692 13.6184 140.823 14.3855 141.084 15.0275C141.345 15.6639 141.712 16.1554 142.184 16.502C142.661 16.8429 143.22 17.0133 143.863 17.0133C144.317 17.0133 144.723 16.9281 145.081 16.7576C145.445 16.5815 145.749 16.3287 145.993 15.9991C146.238 15.6696 146.405 15.269 146.496 14.7974H149.445C149.371 15.7236 149.098 16.5446 148.627 17.2605C148.155 17.9707 147.513 18.5275 146.701 18.9309C145.888 19.3287 144.934 19.5275 143.837 19.5275ZM157.689 19.5275C156.41 19.5275 155.302 19.2463 154.365 18.6838C153.427 18.1213 152.7 17.3344 152.183 16.323C151.671 15.3116 151.416 14.1298 151.416 12.7775C151.416 11.4253 151.671 10.2406 152.183 9.22355C152.7 8.20651 153.427 7.41674 154.365 6.85424C155.302 6.29174 156.41 6.01049 157.689 6.01049C158.967 6.01049 160.075 6.29174 161.012 6.85424C161.95 7.41674 162.674 8.20651 163.186 9.22355C163.703 10.2406 163.961 11.4253 163.961 12.7775C163.961 14.1298 163.703 15.3116 163.186 16.323C162.674 17.3344 161.95 18.1213 161.012 18.6838C160.075 19.2463 158.967 19.5275 157.689 19.5275ZM157.706 17.0559C158.399 17.0559 158.978 16.8656 159.444 16.4849C159.91 16.0986 160.257 15.5815 160.484 14.9338C160.717 14.2861 160.833 13.5645 160.833 12.769C160.833 11.9679 160.717 11.2434 160.484 10.5957C160.257 9.94231 159.91 9.42242 159.444 9.03605C158.978 8.64969 158.399 8.45651 157.706 8.45651C156.995 8.45651 156.404 8.64969 155.933 9.03605C155.467 9.42242 155.117 9.94231 154.885 10.5957C154.657 11.2434 154.544 11.9679 154.544 12.769C154.544 13.5645 154.657 14.2861 154.885 14.9338C155.117 15.5815 155.467 16.0986 155.933 16.4849C156.404 16.8656 156.995 17.0559 157.706 17.0559ZM166.58 19.2719V6.18094H169.529V8.40537H169.682C169.955 7.65537 170.407 7.07015 171.037 6.64969C171.668 6.22356 172.421 6.01049 173.296 6.01049C174.182 6.01049 174.929 6.2264 175.537 6.65821C176.151 7.08435 176.583 7.66674 176.833 8.40537H176.969C177.259 7.6781 177.747 7.09856 178.435 6.66674C179.128 6.22924 179.949 6.01049 180.898 6.01049C182.103 6.01049 183.086 6.39117 183.847 7.15253C184.608 7.9139 184.989 9.02469 184.989 10.4849V19.2719H181.895V10.9622C181.895 10.1497 181.679 9.55594 181.247 9.18094C180.816 8.80026 180.287 8.60992 179.662 8.60992C178.918 8.60992 178.336 8.84287 177.915 9.30878C177.5 9.76901 177.293 10.3684 177.293 11.1071V19.2719H174.267V10.8344C174.267 10.1582 174.063 9.61844 173.654 9.21503C173.25 8.81162 172.722 8.60992 172.068 8.60992C171.625 8.60992 171.222 8.72355 170.858 8.95083C170.495 9.17242 170.205 9.48776 169.989 9.89685C169.773 10.3003 169.665 10.7719 169.665 11.3116V19.2719H166.58Z" fill="#0B0B0B"/>
</svg>
