<svg width="220" height="220" viewBox="0 0 220 220" fill="none" xmlns="http://www.w3.org/2000/svg">
<path d="M158.401 127.8C160.901 131.5 159.501 136.6 155.501 137.8C151.301 139.2 146.801 140.3 142.301 138.9C140.101 138.2 137.801 136.1 136.401 140C136.301 140.4 134.901 140.5 134.101 140.5C130.901 140.4 127.701 139.8 124.501 140.1C123.601 140.2 122.901 139.6 122.901 138.9C122.901 137.8 123.701 136.5 121.501 136.6C120.801 136.6 121.101 135.6 121.601 135.1C122.101 134.6 122.601 134.1 122.701 133.3C123.001 131.8 123.301 130.5 121.001 130.6C119.801 130.7 118.801 129.7 117.501 129.2C117.001 130.2 116.501 131.2 116.701 132.2C117.201 135 114.901 136.9 114.601 139.4C114.501 140.8 109.001 141.1 108.201 139.8C107.601 138.9 108.501 138.5 109.001 138.1C109.601 137.6 110.701 138.2 111.101 137C109.701 137 108.401 137 107.101 137C106.701 137 106.201 136.7 106.101 136.2C105.901 135.7 106.301 135.2 106.701 135.1C111.501 133.9 109.601 130 109.501 127.3C109.501 123.5 107.101 120.5 104.301 118.2C101.101 115.6 100.301 112.6 101.101 108.7C101.701 105.6 101.701 102.4 102.701 99.3C103.401 97 101.001 97.3 100.101 97.2C98.1006 97.1 96.2006 97.1 94.6006 95.5C95.0006 94 96.7006 93.8 98.2006 93.1C96.5006 92.3 94.4006 92.4 93.9006 89.9C93.7006 88.6 93.9006 88.3 95.0006 88.2C96.2006 88.1 97.4006 88 98.5006 87.9C99.6006 87.9 100.401 87.6 101.201 86.9C105.001 83.4 111.201 85 113.001 89.8C115.901 98 120.901 104.5 127.201 110.4C133.001 116 138.701 121.8 141.901 129.6C143.401 133.2 145.401 134 149.101 134C153.901 134.2 156.701 132.1 158.401 127.8Z" fill="url(#paint0_linear_706_1357)"/>
<path d="M138.801 198.7C134.201 198.7 130.401 197.6 127.101 195.3C124.201 193.3 121.001 191.5 117.901 189.8L116.901 189.2C114.201 187.7 113.101 185.6 113.501 182.9C114.701 176.1 112.601 170.1 106.801 163.6C102.201 158.4 98.0006 152.8 94.0006 147.3C92.7006 145.6 91.5006 143.9 90.2006 142.2C89.7006 141.5 89.3006 141.3 87.8006 141.1C82.6006 140.4 78.9006 141.9 75.2006 146.3C69.9006 152.6 68.0006 152.4 61.4006 148.6L61.2006 148.5C61.0006 148.4 60.7006 148.2 60.5006 148.1C60.1006 147.9 59.8006 147.7 59.5006 147.6C54.2006 145.7 53.2006 142.1 52.2006 138.7C51.8006 137.1 51.3006 135.4 50.4006 133.6C50.0006 133 47.9006 131.3 46.9006 130.5C45.6006 129.5 44.9006 128.9 44.5006 128.4C39.5006 122.8 31.0006 112.1 30.7006 111.7L30.1006 111V106.5L72.6006 107.2L72.4006 44.8L110.601 44.9L110.501 47.6C110.401 51 110.401 55.5 110.401 59.9C110.401 63.3 110.401 66.5 110.401 69.1C110.401 69.4 110.401 69.6 110.401 69.7C110.501 69.7 110.601 69.8 110.901 69.9C115.701 71.7 120.801 73.7 125.701 75.9C129.401 77.6 133.201 78.3 137.501 78.2C141.501 78.1 145.501 78.1 149.401 78.1C152.101 78.1 154.801 78.1 157.501 78.1C160.001 78.1 162.201 78.7 164.301 79.9C166.001 80.9 168.601 82 171.001 83C173.201 83.9 175.201 84.8 176.901 85.7C177.701 86.1 179.601 87.2 179.501 94.6L180.201 110.4C181.601 112 184.501 115.6 185.301 117.2L185.601 117.7V118.3C185.501 124.3 185.501 129.7 185.601 135.3C185.601 138.3 184.001 139.9 182.601 140.9C177.601 144.5 172.601 148 167.701 151.6C160.701 156.7 153.401 161.9 146.201 167C145.101 167.8 144.801 168.3 144.801 169.7C144.901 174.1 144.901 178.5 144.901 182.9C144.901 186.4 144.901 190.1 144.901 193.6C144.901 197 143.301 198.7 139.901 198.8C139.601 198.7 139.201 198.7 138.801 198.7ZM118.701 184.2C118.701 184.2 118.901 184.4 119.401 184.7L120.401 185.2C123.701 187 127.001 188.8 130.201 191C132.801 192.9 135.701 193.6 139.701 193.5C139.701 189.9 139.701 186.3 139.701 182.8C139.701 178.5 139.701 174.1 139.601 169.8C139.501 166.7 140.601 164.5 143.201 162.7C150.401 157.6 157.601 152.4 164.601 147.3C169.601 143.7 174.501 140.1 179.501 136.6C180.301 136 180.301 135.9 180.301 135.4C180.201 130 180.201 124.8 180.301 119C179.401 117.6 176.701 114.2 175.801 113.3L175.101 112.6L174.301 94.7V94.6C174.301 92.9 174.201 91 174.001 90.1C172.601 89.4 170.901 88.7 169.101 87.9C166.501 86.8 163.701 85.6 161.701 84.4C160.501 83.7 159.301 83.3 157.801 83.4C155.001 83.4 152.301 83.4 149.601 83.4C145.801 83.4 141.801 83.4 137.901 83.5C132.801 83.7 128.201 82.8 123.701 80.8C118.901 78.6 113.901 76.7 109.201 74.9C106.501 73.9 105.201 72 105.301 69.1C105.301 66.6 105.301 63.4 105.301 60C105.301 56.7 105.301 53.2 105.301 50.3L77.8006 50.2L77.9006 112.6L37.7006 111.8C40.7006 115.5 45.4006 121.2 48.5006 124.8C48.7006 125 49.7006 125.8 50.3006 126.4C52.9006 128.5 54.5006 129.9 55.1006 131.1C56.3006 133.4 56.9006 135.5 57.4006 137.3C58.3006 140.4 58.6006 141.7 61.3006 142.6C62.1006 142.9 62.8006 143.3 63.3006 143.6C63.5006 143.7 63.6006 143.8 63.8006 143.9L64.0006 144C65.7006 145 67.6006 146 68.1006 146C68.6006 145.9 70.5006 143.7 71.1006 142.9C75.9006 137.1 81.5006 134.9 88.5006 135.9C90.8006 136.2 92.8006 136.9 94.4006 139.1C95.7006 140.8 96.9006 142.5 98.2006 144.2C102.201 149.6 106.301 155.1 110.701 160.1C117.601 167.8 120.101 175.4 118.701 183.8C118.701 184.1 118.701 184.1 118.701 184.2Z" fill="url(#paint1_linear_706_1357)"/>
<path d="M110 220C49.4 220 0 170.7 0 110C0 49.3 49.3 0 110 0C170.7 0 220 49.3 220 110C220 170.7 170.6 220 110 220ZM110 10.1C54.9 10.1 10.1 54.9 10.1 110C10.1 165.1 54.9 209.9 110 209.9C165.1 209.9 209.9 165.1 209.9 110C209.9 54.9 165.1 10.1 110 10.1Z" fill="url(#paint2_linear_706_1357)"/>
<defs>
<linearGradient id="paint0_linear_706_1357" x1="116.501" y1="122.247" x2="142.812" y2="95.214" gradientUnits="userSpaceOnUse">
<stop stop-color="#DC882E"/>
<stop offset="1" stop-color="white"/>
</linearGradient>
<linearGradient id="paint1_linear_706_1357" x1="159.388" y1="32.5767" x2="75.8643" y2="177.244" gradientUnits="userSpaceOnUse">
<stop stop-color="white"/>
<stop offset="0.2083" stop-color="#F6DFC7"/>
<stop offset="0.6856" stop-color="#DE903B"/>
<stop offset="0.7301" stop-color="#DC882E"/>
</linearGradient>
<linearGradient id="paint2_linear_706_1357" x1="213.464" y1="-28.3026" x2="35.4394" y2="209.556" gradientUnits="userSpaceOnUse">
<stop stop-color="white"/>
<stop offset="0.8501" stop-color="#DC882E"/>
</linearGradient>
</defs>
</svg>
