<svg width="231" height="290" viewBox="0 0 231 290" fill="none" xmlns="http://www.w3.org/2000/svg">
<path d="M115.255 230C51.9003 230 0.254883 178.459 0.254883 115C0.254883 51.541 51.7957 0.00012207 115.255 0.00012207C178.714 0.00012207 230.255 51.541 230.255 115C230.255 178.459 178.609 230 115.255 230Z" fill="#1B1B1B"/>
<path d="M153.655 132.8C156.155 136.5 154.755 141.6 150.755 142.8C146.555 144.2 142.055 145.3 137.555 143.9C135.355 143.2 133.055 141.1 131.655 145C131.555 145.4 130.155 145.5 129.355 145.5C126.155 145.4 122.955 144.8 119.755 145.1C118.855 145.2 118.155 144.6 118.155 143.9C118.155 142.8 118.955 141.5 116.755 141.6C116.055 141.6 116.355 140.6 116.855 140.1C117.355 139.6 117.855 139.1 117.955 138.3C118.255 136.8 118.555 135.5 116.255 135.6C115.055 135.7 114.055 134.7 112.755 134.2C112.255 135.2 111.755 136.2 111.955 137.2C112.455 140 110.155 141.9 109.855 144.4C109.755 145.8 104.255 146.1 103.455 144.8C102.855 143.9 103.755 143.5 104.255 143.1C104.855 142.6 105.955 143.2 106.355 142C104.955 142 103.655 142 102.355 142C101.955 142 101.455 141.7 101.355 141.2C101.155 140.7 101.555 140.2 101.955 140.1C106.755 138.9 104.855 135 104.755 132.3C104.755 128.5 102.355 125.5 99.555 123.2C96.355 120.6 95.555 117.6 96.355 113.7C96.955 110.6 96.955 107.4 97.955 104.3C98.655 102 96.255 102.3 95.355 102.2C93.355 102.1 91.455 102.1 89.855 100.5C90.255 99 91.955 98.8 93.455 98.1C91.755 97.3 89.655 97.4 89.155 94.9C88.955 93.6 89.155 93.3 90.255 93.2C91.455 93.1 92.655 93 93.755 92.9C94.855 92.9 95.655 92.6 96.455 91.9C100.255 88.4 106.455 90 108.255 94.8C111.155 103 116.155 109.5 122.455 115.4C128.255 121 133.955 126.8 137.155 134.6C138.655 138.2 140.655 139 144.355 139C149.155 139.2 151.955 137.1 153.655 132.8Z" fill="url(#paint0_linear_1_194)"/>
<path d="M145.255 108.3V94.3H147.455V100.5L151.955 94.3H154.955L150.755 99.8L155.155 108.4H152.255L149.255 101.8L147.455 104.2V108.4L145.255 108.3Z" fill="#FAF0CC"/>
<path d="M155.755 104.6V101.9H159.955V104.6H155.755Z" fill="#FAF0CC"/>
<path d="M161.055 105L163.055 104.7C163.155 105.7 163.555 106.3 164.255 106.3C164.755 106.3 165.155 106 165.455 105.5C165.755 105 165.955 103.9 166.055 102.3C165.755 102.7 165.455 103 165.155 103.2C164.855 103.4 164.455 103.5 164.055 103.5C163.255 103.5 162.455 103.1 161.855 102.2C161.255 101.4 160.855 100.3 160.855 98.9001C160.855 97.4001 161.155 96.3001 161.855 95.4001C162.555 94.6001 163.355 94.1001 164.355 94.1001C165.455 94.1001 166.355 94.6001 167.155 95.7001C167.855 96.8001 168.255 98.6001 168.255 101.1C168.255 103.6 167.855 105.5 167.155 106.7C166.355 107.8 165.455 108.4 164.255 108.4C163.455 108.4 162.755 108.1 162.155 107.5C161.555 107.1 161.255 106.3 161.055 105ZM165.855 99.2001C165.855 98.3001 165.655 97.6001 165.355 97.2001C165.055 96.7001 164.655 96.5001 164.255 96.5001C163.855 96.5001 163.555 96.7001 163.255 97.1001C162.955 97.5001 162.855 98.1001 162.855 99.0001C162.855 99.9001 162.955 100.6 163.255 101C163.555 101.4 163.855 101.6 164.355 101.6C164.755 101.6 165.055 101.4 165.355 101C165.755 100.6 165.855 100 165.855 99.2001Z" fill="#FAF0CC"/>
<path d="M150.155 128.3V116.5H146.855V114.1H155.655V116.5H152.355V128.3H150.155Z" fill="#FAF0CC"/>
<path d="M156.055 128.3L159.855 120.9L156.355 114.1H158.955L161.155 118.3L163.355 114.1H165.955L162.455 120.9L166.255 128.3H163.555L161.055 123.5L158.555 128.3H156.055Z" fill="#FAF0CC"/>
<path d="M49.5555 67.1001L38.8555 58.4001L40.2555 56.6001L45.0555 60.5001L43.1555 53.0001L45.0555 50.6001L46.5555 57.3001L55.9555 59.1001L54.0555 61.4001L47.0555 59.8001L47.6555 62.7001L50.8555 65.3001L49.5555 67.1001Z" fill="#FAF0CC"/>
<path d="M53.5553 56.5001L51.6553 54.6001L54.6553 51.6001L56.5553 53.5001L53.5553 56.5001Z" fill="#FAF0CC"/>
<path d="M57.7549 53.0001L59.1549 51.4001C59.8549 52.1001 60.5549 52.2001 61.0549 51.8001C61.4549 51.5001 61.5549 51.0001 61.4549 50.5001C61.3549 49.9001 60.8549 49.0001 59.8549 47.8001C59.8549 48.3001 59.8549 48.7001 59.7549 49.0001C59.6549 49.4001 59.3549 49.7001 59.0549 50.0001C58.3549 50.6001 57.5549 50.7001 56.5549 50.5001C55.5549 50.3001 54.5549 49.7001 53.6549 48.7001C52.7549 47.6001 52.2549 46.5001 52.2549 45.4001C52.2549 44.3001 52.6549 43.4001 53.3549 42.8001C54.2549 42.1001 55.2549 41.9001 56.5549 42.2001C57.8549 42.5001 59.2549 43.6001 60.8549 45.5001C62.4549 47.4001 63.3549 49.1001 63.5549 50.4001C63.6549 51.7001 63.2549 52.8001 62.3549 53.6001C61.7549 54.2001 60.9549 54.4001 60.1549 54.3001C59.4549 54.2001 58.6549 53.8001 57.7549 53.0001ZM57.7549 45.4001C57.1549 44.7001 56.6549 44.3001 56.0549 44.2001C55.5549 44.1001 55.0549 44.1001 54.7549 44.4001C54.4549 44.7001 54.3549 45.0001 54.3549 45.5001C54.3549 46.0001 54.7549 46.5001 55.2549 47.2001C55.8549 47.9001 56.3549 48.3001 56.8549 48.4001C57.3549 48.5001 57.7549 48.4001 58.0549 48.2001C58.3549 47.9001 58.4549 47.6001 58.4549 47.1001C58.5549 46.6001 58.2549 46.0001 57.7549 45.4001Z" fill="#FAF0CC"/>
<path d="M69.9547 47.3L63.0547 35.3L66.0547 33.6L72.5547 40.7001L69.6547 31.5L72.6547 29.8L79.4547 41.8L77.6547 42.9L72.2547 33.5L75.7547 44L73.8547 45.1L66.3547 36.8L71.7547 46.2001L69.9547 47.3Z" fill="#FAF0CC"/>
<path d="M79.9555 34.1L77.9555 34.4C77.7555 33.4 77.8555 32.6 78.2555 31.9C78.5555 31.3 79.2555 30.8 80.1555 30.4C80.9555 30.1 81.6555 29.9 82.2555 30C82.7555 30.1 83.2555 30.2 83.6551 30.6C84.0551 30.9 84.4551 31.6 84.8551 32.7L86.0551 35.6C86.3551 36.4 86.6551 37 86.8551 37.3C87.0551 37.7 87.3551 38 87.7551 38.4L85.7551 39.2L85.0551 38.3C84.8551 38.8 84.6551 39.3 84.3551 39.7C84.0551 40.1 83.6551 40.3 83.2555 40.5C82.5555 40.8 81.8555 40.8 81.1555 40.5C80.4555 40.2 79.9555 39.6 79.6555 38.8C79.4555 38.3 79.3555 37.8 79.3555 37.3C79.3555 36.8 79.5555 36.4 79.7555 36C80.0555 35.6 80.4555 35.2 81.1555 34.7C81.9555 34.1 82.5555 33.6 82.8555 33.3C82.6555 32.8 82.4555 32.5 82.3555 32.3C82.2555 32.2 82.0555 32.1 81.7555 32.1C81.5555 32.1 81.2555 32.1 80.8555 32.3C80.4555 32.4 80.2555 32.6 80.1555 32.9C79.9555 33.2 79.8555 33.6 79.9555 34.1ZM83.4551 35C83.2555 35.2 82.8555 35.5 82.4555 35.9C81.8555 36.3 81.5555 36.7 81.4555 36.9C81.3555 37.2 81.3555 37.5 81.4555 37.8C81.5555 38.2 81.8555 38.4 82.1555 38.6C82.4555 38.8 82.7555 38.8 83.0555 38.6C83.3555 38.5 83.5551 38.3 83.7551 38C83.9551 37.7 84.0551 37.4 84.0551 37.1C84.0551 36.8 83.9551 36.3 83.6551 35.6L83.4551 35Z" fill="#FAF0CC"/>
<path d="M96.0553 35.9L93.9553 36.5L92.5553 31.6C92.2553 30.6 92.0553 30 91.8553 29.7C91.6553 29.4 91.4553 29.2 91.1553 29.1C90.8553 29 90.6553 29 90.3553 29.1C90.0553 29.2 89.7553 29.4 89.5553 29.7C89.3553 30 89.2553 30.4 89.2553 30.8C89.2553 31.2 89.4553 32 89.7553 33.1L91.0553 37.4L88.9553 38L86.1553 28.4L88.0553 27.8L88.4553 29.2C88.6553 28.6 88.9553 28 89.2553 27.6C89.5553 27.2 90.0553 26.9 90.5553 26.8C91.1553 26.6 91.7553 26.6 92.2553 26.8C92.7553 27 93.1553 27.3 93.4553 27.8C93.7553 28.2 94.0553 28.9 94.3553 29.9L96.0553 35.9Z" fill="#FAF0CC"/>
<path d="M105.255 34.3L103.155 34.7L102.355 29.7C102.155 28.7 102.055 28 101.855 27.7C101.755 27.4 101.555 27.1 101.255 27C100.955 26.9 100.755 26.8 100.455 26.9C100.055 27 99.755 27.1 99.555 27.4C99.255 27.7 99.155 28 99.155 28.5C99.155 28.9 99.155 29.7 99.355 30.8L100.155 35.3L98.055 35.7L96.355 25.9L98.355 25.6L98.455 26.8C98.755 26.2 99.055 25.7 99.455 25.3C99.855 24.9 100.355 24.7 100.855 24.6C101.455 24.5 102.055 24.6 102.555 24.8C103.055 25 103.455 25.4 103.655 25.9C103.855 26.4 104.155 27.1 104.255 28.1L105.255 34.3Z" fill="#FAF0CC"/>
<path d="M111.655 30.7L113.855 31C113.655 32 113.255 32.8 112.655 33.3C112.055 33.8 111.355 34.1 110.455 34.2C109.255 34.3 108.255 33.9 107.555 33.1C106.755 32.2 106.255 30.9 106.155 29.2C106.055 27.5 106.355 26.2 107.055 25.1C107.655 24.2 108.455 23.7 109.555 23.7C110.755 23.6 111.655 24 112.355 24.8C113.155 25.7 113.655 27.2 113.755 29.1V29.4L108.355 29.7C108.455 30.5 108.655 31.1 108.955 31.5C109.355 31.9 109.755 32.1 110.255 32.1C111.055 32.1 111.455 31.6 111.655 30.7ZM111.555 28C111.455 27.2 111.255 26.6 110.955 26.3C110.655 25.9 110.255 25.8 109.755 25.8C109.255 25.8 108.955 26.1 108.655 26.5C108.355 26.9 108.255 27.5 108.255 28.3L111.555 28Z" fill="#FAF0CC"/>
<path d="M117.555 33.8001H115.455L115.755 23.8001L117.755 23.9001V25.3001C118.155 24.6001 118.455 24.2001 118.755 24.0001C119.055 23.8001 119.355 23.7001 119.755 23.7001C120.255 23.7001 120.755 23.9001 121.155 24.2001L120.455 26.5001C120.155 26.2001 119.755 26.0001 119.455 26.0001C119.155 26.0001 118.855 26.1001 118.655 26.3001C118.455 26.5001 118.255 26.9001 118.155 27.5001C118.055 28.1001 117.955 29.2001 117.955 30.7001L117.555 33.8001Z" fill="#FAF0CC"/>
<path d="M120.955 31.1L123.155 31C123.255 32.1 123.755 32.7 124.655 32.8C125.155 32.9 125.555 32.8 125.855 32.6C126.155 32.4 126.255 32.2 126.355 31.9C126.355 31.7 126.355 31.5 126.255 31.4C126.155 31.3 125.955 31.1 125.555 31C123.855 30.3 122.755 29.7 122.355 29.3C121.855 28.7 121.655 27.9 121.755 27C121.855 26.1 122.255 25.4 122.855 24.9C123.555 24.4 124.355 24.2 125.555 24.4C126.655 24.5 127.355 24.8 127.955 25.3C128.455 25.8 128.755 26.5 128.855 27.4L126.755 27.6C126.655 26.8 126.255 26.3 125.355 26.2C124.855 26.1 124.455 26.2 124.155 26.3C123.955 26.4 123.755 26.6 123.755 26.9C123.755 27.1 123.855 27.3 123.955 27.5C124.155 27.7 124.755 28 125.755 28.4C126.955 28.9 127.655 29.4 128.055 29.9C128.455 30.4 128.555 31.1 128.455 31.9C128.355 32.9 127.955 33.6 127.155 34.2C126.455 34.7 125.455 34.9 124.355 34.8C123.355 34.7 122.455 34.3 121.855 33.7C121.455 32.9 121.055 32.1 120.955 31.1Z" fill="#FAF0CC"/>
<path d="M134.755 30.9C135.055 30 135.455 29.2 136.055 28.5C136.655 27.8 137.355 27.4 138.055 27.2C138.755 27 139.455 27 140.255 27.2C141.555 27.6 142.355 28.4 142.755 29.6C143.155 30.8 143.255 32.1 142.855 33.4C142.555 34.4 142.155 35.2 141.555 35.9C140.955 36.6 140.255 37 139.555 37.3C138.855 37.5 138.055 37.5 137.355 37.3C136.155 37 135.355 36.2 134.855 35.1C134.355 33.9 134.355 32.6 134.755 30.9ZM136.855 31.7C136.555 32.7 136.555 33.5 136.755 34.1C136.955 34.7 137.355 35.1 137.955 35.2C138.455 35.4 138.955 35.2 139.555 34.8C140.055 34.4 140.455 33.7 140.755 32.7C141.055 31.7 141.055 31 140.855 30.4C140.655 29.8 140.255 29.4 139.755 29.2C139.255 29 138.755 29.2 138.155 29.6C137.555 30 137.155 30.7 136.855 31.7Z" fill="#FAF0CC"/>
<path d="M145.555 29.1L146.655 29.5L146.955 28.8C147.255 28 147.655 27.4 147.955 27.1C148.255 26.8 148.655 26.6 149.055 26.5C149.455 26.4 149.955 26.5 150.555 26.7C151.155 26.9 151.655 27.2 152.155 27.7L151.255 29.3C150.955 29.1 150.655 28.9 150.355 28.8C150.055 28.7 149.855 28.7 149.655 28.8C149.455 28.9 149.255 29.2 149.055 29.7L148.755 30.4L150.255 31L149.455 32.9L147.955 32.3L145.055 39.7L143.055 38.9L145.955 31.5L144.855 31.1L145.555 29.1Z" fill="#FAF0CC"/>
<path d="M153.455 43.6L159.055 33.6L156.155 31.9L157.255 29.9L165.055 34.3L163.955 36.3L161.055 34.7L155.455 44.8L153.455 43.6Z" fill="#FAF0CC"/>
<path d="M164.055 46.6L165.555 48.2C164.755 48.9 163.955 49.2 163.155 49.3C162.355 49.3 161.655 49.1 160.955 48.6C159.955 47.9 159.455 47 159.355 46C159.255 44.8 159.655 43.5 160.655 42.1C161.655 40.7 162.655 39.9 163.955 39.5C164.955 39.2 165.955 39.3 166.755 39.9C167.755 40.6 168.255 41.5 168.255 42.5C168.355 43.8 167.755 45.2 166.655 46.8L166.455 47L162.055 43.9C161.655 44.6 161.455 45.2 161.455 45.7C161.455 46.2 161.655 46.7 162.055 46.9C162.655 47.4 163.255 47.2 164.055 46.6ZM165.655 44.4C166.055 43.8 166.255 43.2 166.255 42.7C166.255 42.2 166.055 41.8 165.655 41.6C165.255 41.3 164.855 41.3 164.355 41.4C163.855 41.6 163.355 41.9 162.955 42.6L165.655 44.4Z" fill="#FAF0CC"/>
<path d="M164.355 50.7001L169.955 48.8L171.055 43.3L173.055 45L172.455 47.9L175.255 46.9L177.155 48.6L171.955 50.4L170.855 56.3L168.855 54.6001L169.455 51.3L166.255 52.4L164.355 50.7001Z" fill="#FAF0CC"/>
<path d="M177.655 53.4001L176.655 51.7001C177.555 51.2001 178.355 51.0001 179.055 51.1001C179.755 51.2001 180.455 51.6001 181.155 52.4001C181.755 53.1001 182.155 53.7001 182.255 54.2001C182.355 54.7001 182.355 55.2001 182.155 55.7001C181.955 56.2001 181.455 56.8001 180.555 57.6001L178.255 59.7001C177.655 60.3001 177.155 60.8001 176.955 61.1001C176.655 61.4001 176.455 61.8001 176.255 62.3001L174.755 60.7001L175.355 59.8001C174.755 59.8001 174.255 59.8001 173.855 59.6001C173.455 59.4001 173.055 59.2001 172.655 58.8001C172.155 58.2001 171.855 57.6001 171.955 56.8001C171.955 56.1001 172.355 55.4001 172.955 54.8001C173.355 54.4001 173.755 54.2001 174.255 54.0001C174.655 53.9001 175.155 53.9001 175.555 54.0001C175.955 54.1001 176.555 54.4001 177.255 54.9001C178.155 55.5001 178.755 55.8001 179.155 56.0001C179.555 55.6001 179.755 55.3001 179.855 55.2001C179.955 55.0001 179.955 54.8001 179.855 54.6001C179.755 54.4001 179.655 54.1001 179.355 53.8001C179.055 53.5001 178.855 53.4001 178.555 53.3001C178.455 53.1001 178.055 53.2001 177.655 53.4001ZM178.055 57.0001C177.755 56.9001 177.355 56.7001 176.855 56.3001C176.255 55.9001 175.855 55.7001 175.555 55.7001C175.255 55.7001 174.955 55.8001 174.755 56.0001C174.455 56.3001 174.355 56.6001 174.255 56.9001C174.255 57.2001 174.355 57.5001 174.555 57.8001C174.755 58.0001 175.055 58.2001 175.455 58.2001C175.855 58.3001 176.155 58.3001 176.455 58.1001C176.755 58.0001 177.155 57.7001 177.755 57.2001L178.055 57.0001Z" fill="#FAF0CC"/>
<path d="M178.955 60.9001L180.555 62.4001C179.855 63.2001 179.755 64.0001 180.355 64.7001C180.655 65.1001 180.955 65.4001 181.255 65.4001C181.555 65.5001 181.855 65.4001 182.155 65.2001C182.355 65.1001 182.455 64.9001 182.455 64.8001C182.455 64.6001 182.455 64.4001 182.255 64.0001C181.555 62.3001 181.255 61.1001 181.255 60.5001C181.355 59.7001 181.755 59.0001 182.455 58.5001C183.155 57.9001 183.955 57.7001 184.755 57.9001C185.555 58.0001 186.255 58.5001 186.955 59.4001C187.555 60.3001 187.955 61.0001 187.955 61.7001C187.955 62.4001 187.655 63.1001 187.055 63.9001L185.455 62.5001C185.955 61.9001 185.955 61.2001 185.455 60.5001C185.155 60.1001 184.855 59.8001 184.555 59.7001C184.255 59.6001 184.055 59.6001 183.855 59.8001C183.655 59.9001 183.555 60.1001 183.555 60.4001C183.555 60.7001 183.755 61.3001 184.155 62.3001C184.655 63.5001 184.755 64.4001 184.655 65.0001C184.555 65.6001 184.155 66.2001 183.455 66.7001C182.655 67.3001 181.855 67.5001 180.955 67.3001C180.055 67.2001 179.255 66.6001 178.555 65.7001C177.955 64.9001 177.655 64.0001 177.655 63.2001C177.955 62.5001 178.255 61.6001 178.955 60.9001Z" fill="#FAF0CC"/>
<path d="M144.055 203.7C139.455 203.7 135.655 202.6 132.355 200.3C129.455 198.3 126.255 196.5 123.155 194.8L122.155 194.2C119.455 192.7 118.355 190.6 118.755 187.9C119.955 181.1 117.855 175.1 112.055 168.6C107.455 163.4 103.255 157.8 99.2551 152.3C97.9551 150.6 96.7551 148.9 95.4551 147.2C94.9551 146.5 94.5551 146.3 93.0551 146.1C87.8551 145.4 84.1551 146.9 80.4555 151.3C75.1555 157.6 73.2555 157.4 66.6555 153.6L66.4555 153.5C66.2555 153.4 65.9555 153.2 65.7555 153.1C65.3555 152.9 65.0555 152.7 64.7555 152.6C59.4555 150.7 58.4555 147.1 57.4555 143.7C57.0555 142.1 56.5555 140.4 55.6555 138.6C55.2555 138 53.1555 136.3 52.1555 135.5C50.8555 134.5 50.1555 133.9 49.7555 133.4C44.7555 127.8 36.2555 117.1 35.9555 116.7L35.3555 116V111.5L77.8555 112.2L77.6555 49.8L115.855 49.9L115.755 52.6001C115.655 56.0001 115.655 60.5 115.655 64.9C115.655 68.3 115.655 71.5001 115.655 74.1001C115.655 74.4001 115.655 74.6001 115.655 74.7001C115.755 74.7001 115.855 74.8 116.155 74.9C120.955 76.7 126.055 78.7 130.955 80.9C134.655 82.6 138.455 83.3001 142.755 83.2001C146.755 83.1001 150.755 83.1001 154.655 83.1001C157.355 83.1001 160.055 83.1001 162.755 83.1001C165.255 83.1001 167.455 83.7 169.555 84.9C171.255 85.9 173.855 87 176.255 88C178.455 88.9 180.455 89.8001 182.155 90.7001C182.955 91.1001 184.855 92.2001 184.755 99.6001L185.455 115.4C186.855 117 189.755 120.6 190.555 122.2L190.855 122.7V123.3C190.755 129.3 190.755 134.7 190.855 140.3C190.855 143.3 189.255 144.9 187.855 145.9C182.855 149.5 177.855 153 172.955 156.6C165.955 161.7 158.655 166.9 151.455 172C150.355 172.8 150.055 173.3 150.055 174.7C150.155 179.1 150.155 183.5 150.155 187.9C150.155 191.4 150.155 195.1 150.155 198.6C150.155 202 148.555 203.7 145.155 203.8C144.855 203.7 144.455 203.7 144.055 203.7ZM123.955 189.2C123.955 189.2 124.155 189.4 124.655 189.7L125.655 190.2C128.955 192 132.255 193.8 135.455 196C138.055 197.9 140.955 198.6 144.955 198.5C144.955 194.9 144.955 191.3 144.955 187.8C144.955 183.5 144.955 179.1 144.855 174.8C144.755 171.7 145.855 169.5 148.455 167.7C155.655 162.6 162.855 157.4 169.855 152.3C174.855 148.7 179.755 145.1 184.755 141.6C185.555 141 185.555 140.9 185.555 140.4C185.455 135 185.455 129.8 185.555 124C184.655 122.6 181.955 119.2 181.055 118.3L180.355 117.6L179.555 99.7001V99.6001C179.555 97.9001 179.455 96.0001 179.255 95.1001C177.855 94.4001 176.155 93.7 174.355 92.9C171.755 91.8 168.955 90.6 166.955 89.4C165.755 88.7 164.555 88.3 163.055 88.4C160.255 88.4 157.555 88.4 154.855 88.4C151.055 88.4 147.055 88.4 143.155 88.5C138.055 88.7 133.455 87.8 128.955 85.8C124.155 83.6 119.155 81.7 114.455 79.9C111.755 78.9 110.455 77.0001 110.555 74.1001C110.555 71.6001 110.555 68.4 110.555 65C110.555 61.7 110.555 58.2 110.555 55.3L83.0555 55.2001L83.1555 117.6L42.9555 116.8C45.9555 120.5 50.6555 126.2 53.7555 129.8C53.9555 130 54.9555 130.8 55.5555 131.4C58.1555 133.5 59.7555 134.9 60.3555 136.1C61.5555 138.4 62.1555 140.5 62.6555 142.3C63.5555 145.4 63.8555 146.7 66.5555 147.6C67.3555 147.9 68.0555 148.3 68.5555 148.6C68.7555 148.7 68.8555 148.8 69.0555 148.9L69.2555 149C70.9555 150 72.8555 151 73.3555 151C73.8555 150.9 75.7555 148.7 76.3555 147.9C81.1555 142.1 86.7551 139.9 93.7551 140.9C96.0551 141.2 98.0551 141.9 99.6551 144.1C100.955 145.8 102.155 147.5 103.455 149.2C107.455 154.6 111.555 160.1 115.955 165.1C122.855 172.8 125.355 180.4 123.955 188.8C123.955 189.1 123.955 189.1 123.955 189.2Z" fill="url(#paint1_linear_1_194)"/>
<path d="M115.255 225C54.6549 225 5.25488 175.7 5.25488 115C5.25488 54.3 54.5549 5 115.255 5C175.955 5 225.255 54.3 225.255 115C225.255 175.7 175.855 225 115.255 225ZM115.255 15.1C60.1549 15.1 15.3549 59.9 15.3549 115C15.3549 170.1 60.1549 214.9 115.255 214.9C170.355 214.9 215.155 170.1 215.155 115C215.155 59.9 170.355 15.1 115.255 15.1Z" fill="url(#paint2_linear_1_194)"/>
<path d="M196.85 258.135L186.066 289.072H180.309L191.174 258.93H177.309V252.971H196.85V258.135Z" fill="#1B1B1B"/>
<path d="M159.228 278.892C159.444 280.349 159.931 281.474 160.687 282.269C161.471 283.03 162.512 283.411 163.809 283.411C165.485 283.411 166.701 282.567 167.458 280.879C168.215 279.157 168.593 276.277 168.593 272.238C167.972 273.298 167.093 274.125 165.958 274.721C164.85 275.317 163.647 275.615 162.35 275.615C160.62 275.615 159.052 275.185 157.647 274.324C156.268 273.43 155.174 272.122 154.363 270.401C153.552 268.646 153.146 266.528 153.146 264.045C153.146 260.37 154.038 257.457 155.822 255.305C157.606 253.12 160.039 252.028 163.12 252.028C166.958 252.028 169.661 253.534 171.228 256.547C172.823 259.559 173.62 264.094 173.62 270.153C173.62 274.456 173.31 277.982 172.688 280.73C172.093 283.477 171.053 285.563 169.566 286.986C168.107 288.41 166.107 289.122 163.566 289.122C161.566 289.122 159.863 288.658 158.458 287.731C157.052 286.771 155.971 285.53 155.214 284.007C154.484 282.451 154.065 280.746 153.957 278.892H159.228ZM163.525 269.954C164.931 269.954 166.039 269.424 166.85 268.365C167.661 267.306 168.066 265.882 168.066 264.094C168.066 262.141 167.634 260.635 166.769 259.576C165.931 258.483 164.782 257.937 163.323 257.937C161.863 257.937 160.701 258.5 159.836 259.625C158.998 260.718 158.579 262.174 158.579 263.995C158.579 265.75 158.985 267.19 159.795 268.315C160.633 269.408 161.877 269.954 163.525 269.954Z" fill="#1B1B1B"/>
<path d="M133.849 278.892C134.065 280.349 134.552 281.474 135.309 282.269C136.092 283.03 137.133 283.411 138.43 283.411C140.106 283.411 141.322 282.567 142.079 280.879C142.836 279.157 143.214 276.277 143.214 272.238C142.593 273.298 141.714 274.125 140.579 274.721C139.471 275.317 138.268 275.615 136.971 275.615C135.241 275.615 133.673 275.185 132.268 274.324C130.889 273.43 129.795 272.122 128.984 270.401C128.173 268.646 127.768 266.528 127.768 264.045C127.768 260.37 128.66 257.457 130.443 255.305C132.227 253.12 134.66 252.028 137.741 252.028C141.579 252.028 144.282 253.534 145.85 256.547C147.444 259.559 148.242 264.094 148.242 270.153C148.242 274.456 147.931 277.982 147.309 280.73C146.714 283.477 145.674 285.563 144.187 286.986C142.728 288.41 140.728 289.122 138.187 289.122C136.187 289.122 134.484 288.658 133.079 287.731C131.673 286.771 130.592 285.53 129.835 284.007C129.105 282.451 128.687 280.746 128.578 278.892H133.849ZM138.146 269.954C139.552 269.954 140.66 269.424 141.471 268.365C142.282 267.306 142.687 265.882 142.687 264.094C142.687 262.141 142.255 260.635 141.39 259.576C140.552 258.483 139.403 257.937 137.944 257.937C136.484 257.937 135.322 258.5 134.457 259.625C133.619 260.718 133.2 262.174 133.2 263.995C133.2 265.75 133.606 267.19 134.417 268.315C135.254 269.408 136.498 269.954 138.146 269.954Z" fill="#1B1B1B"/>
<path d="M111.902 259.277V252.872H121.673V289.072H115.835V259.277H111.902Z" fill="#1B1B1B"/>
<path d="M95.5624 289.42C94.5353 289.42 93.6839 289.039 93.0082 288.278C92.3595 287.483 92.0352 286.507 92.0352 285.348C92.0352 284.189 92.3595 283.229 93.0082 282.468C93.6839 281.673 94.5353 281.276 95.5624 281.276C96.5624 281.276 97.3868 281.673 98.0355 282.468C98.6841 283.229 99.0085 284.189 99.0085 285.348C99.0085 286.507 98.6841 287.483 98.0355 288.278C97.3868 289.039 96.5624 289.42 95.5624 289.42Z" fill="#1B1B1B"/>
<path d="M83.9397 267.273V280.581C83.9397 281.508 84.1154 282.186 84.4667 282.617C84.8451 283.014 85.4668 283.213 86.3317 283.213H88.967V289.072H85.3992C80.6152 289.072 78.2232 286.225 78.2232 280.531V267.273H75.5474V261.562H78.2232V254.759H83.9397V261.562H88.967V267.273H83.9397Z" fill="#1B1B1B"/>
<path d="M63.8323 289.519C61.9944 289.519 60.3456 289.121 58.8861 288.327C57.4266 287.499 56.2644 286.39 55.3994 285C54.5616 283.61 54.1021 282.07 54.021 280.382H59.7375C59.8456 281.441 60.2646 282.318 60.9943 283.014C61.7511 283.709 62.6836 284.056 63.7918 284.056C64.8729 284.056 65.7108 283.792 66.3054 283.262C66.9271 282.732 67.2379 282.054 67.2379 281.226C67.2379 280.332 66.8595 279.67 66.1027 279.24C65.3729 278.776 64.1972 278.28 62.5755 277.75C60.8997 277.253 59.5213 276.74 58.4401 276.211C57.386 275.681 56.4671 274.87 55.6832 273.777C54.9264 272.685 54.548 271.212 54.548 269.358C54.548 267.835 54.8994 266.445 55.6022 265.187C56.3319 263.929 57.359 262.936 58.6834 262.207C60.0348 261.479 61.616 261.115 63.4269 261.115C66.1027 261.115 68.2379 261.942 69.8326 263.598C71.4273 265.22 72.3057 267.421 72.4679 270.202H67.0352C66.9541 269.11 66.5757 268.249 65.9 267.62C65.2513 266.958 64.3729 266.627 63.2647 266.627C62.2376 266.627 61.4403 266.858 60.8727 267.322C60.3321 267.785 60.0618 268.431 60.0618 269.259C60.0618 270.185 60.4402 270.897 61.197 271.394C61.9538 271.857 63.1296 272.337 64.7242 272.834C66.3459 273.33 67.6838 273.844 68.738 274.373C69.7921 274.903 70.6975 275.731 71.4543 276.856C72.2381 277.949 72.6436 279.405 72.6706 281.226C72.6706 282.815 72.3057 284.238 71.5759 285.496C70.8732 286.754 69.8461 287.748 68.4947 288.476C67.1703 289.171 65.6162 289.519 63.8323 289.519Z" fill="#1B1B1B"/>
<path d="M39.3361 260.022V268.712H48.8636V274.224H39.3361V283.411H50.0799V289.072H33.6602V254.361H50.0799V260.022H39.3361Z" fill="#1B1B1B"/>
<defs>
<linearGradient id="paint0_linear_1_194" x1="111.755" y1="127.247" x2="138.066" y2="100.214" gradientUnits="userSpaceOnUse">
<stop stop-color="#DC882E"/>
<stop offset="1" stop-color="white"/>
</linearGradient>
<linearGradient id="paint1_linear_1_194" x1="164.643" y1="37.5768" x2="81.1192" y2="182.244" gradientUnits="userSpaceOnUse">
<stop stop-color="white"/>
<stop offset="0.2083" stop-color="#F6DFC7"/>
<stop offset="0.6856" stop-color="#DE903B"/>
<stop offset="0.7301" stop-color="#DC882E"/>
</linearGradient>
<linearGradient id="paint2_linear_1_194" x1="218.719" y1="-23.3026" x2="40.6943" y2="214.556" gradientUnits="userSpaceOnUse">
<stop stop-color="white"/>
<stop offset="0.8501" stop-color="#DC882E"/>
</linearGradient>
</defs>
</svg>
