<svg width="221" height="221" viewBox="0 0 221 221" fill="none" xmlns="http://www.w3.org/2000/svg">
<path d="M149.2 128C151.7 131.7 150.3 136.8 146.3 138C142.1 139.4 137.6 140.5 133.1 139.1C130.9 138.4 128.6 136.3 127.2 140.2C127.1 140.6 125.7 140.7 124.9 140.7C121.7 140.6 118.5 140 115.3 140.3C114.4 140.4 113.7 139.8 113.7 139.1C113.7 138 114.5 136.7 112.3 136.8C111.6 136.8 111.9 135.8 112.4 135.3C112.9 134.8 113.4 134.3 113.5 133.5C113.8 132 114.1 130.7 111.8 130.8C110.6 130.9 109.6 129.9 108.3 129.4C107.8 130.4 107.3 131.4 107.5 132.4C108 135.2 105.7 137.1 105.4 139.6C105.3 141 99.8004 141.3 99.0004 140C98.4004 139.1 99.3004 138.7 99.8004 138.3C100.4 137.8 101.5 138.4 101.9 137.2C100.5 137.2 99.2004 137.2 97.9004 137.2C97.5004 137.2 97.0004 136.9 96.9004 136.4C96.7004 135.9 97.1004 135.4 97.5004 135.3C102.3 134.1 100.4 130.2 100.3 127.5C100.3 123.7 97.9004 120.7 95.1004 118.4C91.9004 115.8 91.1004 112.8 91.9004 108.9C92.5004 105.8 92.5004 102.6 93.5004 99.5C94.2004 97.2 91.8004 97.5 90.9004 97.4C88.9004 97.3 87.0004 97.3 85.4004 95.7C85.8004 94.2 87.5004 94 89.0004 93.3C87.3004 92.5 85.2004 92.6 84.7004 90.1C84.5004 88.8 84.7004 88.5 85.8004 88.4C87.0004 88.3 88.2004 88.2 89.3004 88.1C90.4004 88.1 91.2004 87.8 92.0004 87.1C95.8004 83.6 102 85.2 103.8 90C106.7 98.2 111.7 104.7 118 110.6C123.8 116.2 129.5 122 132.7 129.8C134.2 133.4 136.2 134.2 139.9 134.2C144.7 134.4 147.5 132.3 149.2 128Z" fill="url(#paint0_linear_499_1378)"/>
<path d="M140.8 103.5V89.5H143V95.7L147.5 89.5H150.5L146.3 95L150.7 103.6H147.8L144.8 97L143 99.4V103.6L140.8 103.5Z" fill="#FAF0CC"/>
<path d="M151.3 99.8V97.1H155.5V99.8H151.3Z" fill="#FAF0CC"/>
<path d="M156.6 100.2L158.6 99.9C158.7 100.9 159.1 101.5 159.8 101.5C160.3 101.5 160.7 101.2 161 100.7C161.3 100.2 161.5 99.1 161.6 97.5C161.3 97.9 161 98.2 160.7 98.4C160.4 98.6 160 98.7 159.6 98.7C158.8 98.7 158 98.3 157.4 97.4C156.8 96.6 156.4 95.5 156.4 94.1C156.4 92.6 156.7 91.5 157.4 90.6C158.1 89.8 158.9 89.3 159.9 89.3C161 89.3 161.9 89.8 162.7 90.9C163.4 92 163.8 93.8 163.8 96.3C163.8 98.8 163.4 100.7 162.7 101.9C161.9 103 161 103.6 159.8 103.6C159 103.6 158.3 103.3 157.7 102.7C157.1 102.3 156.8 101.5 156.6 100.2ZM161.4 94.4C161.4 93.5 161.2 92.8 160.9 92.4C160.6 91.9 160.2 91.7 159.8 91.7C159.4 91.7 159.1 91.9 158.8 92.3C158.5 92.7 158.4 93.3 158.4 94.2C158.4 95.1 158.5 95.8 158.8 96.2C159.1 96.6 159.4 96.8 159.9 96.8C160.3 96.8 160.6 96.6 160.9 96.2C161.3 95.8 161.4 95.2 161.4 94.4Z" fill="#FAF0CC"/>
<path d="M145.7 123.5V111.7H142.4V109.3H151.2V111.7H147.9V123.5H145.7Z" fill="#FAF0CC"/>
<path d="M151.6 123.5L155.4 116.1L151.9 109.3H154.5L156.7 113.5L158.9 109.3H161.5L158 116.1L161.8 123.5H159.1L156.6 118.7L154.1 123.5H151.6Z" fill="#FAF0CC"/>
<path d="M45.1004 62.3L34.4004 53.6L35.8004 51.8L40.6004 55.7L38.7004 48.2L40.6004 45.8L42.1004 52.5L51.5004 54.3L49.6004 56.6L42.6004 55L43.2004 57.9L46.4004 60.5L45.1004 62.3Z" fill="#FAF0CC"/>
<path d="M49.1002 51.7L47.2002 49.8L50.2002 46.8L52.1002 48.7L49.1002 51.7Z" fill="#FAF0CC"/>
<path d="M53.2998 48.2L54.6998 46.6C55.3998 47.3 56.0998 47.4 56.5998 47C56.9998 46.7 57.0998 46.2 56.9998 45.7C56.8998 45.1 56.3998 44.2 55.3998 43C55.3998 43.5 55.3998 43.9 55.2998 44.2C55.1998 44.6 54.8998 44.9 54.5998 45.2C53.8998 45.8 53.0998 45.9 52.0998 45.7C51.0998 45.5 50.0998 44.9 49.1998 43.9C48.2998 42.8 47.7998 41.7 47.7998 40.6C47.7998 39.5 48.1998 38.6 48.8998 38C49.7998 37.3 50.7998 37.1 52.0998 37.4C53.3998 37.7 54.7998 38.8 56.3998 40.7C57.9998 42.6 58.8998 44.3 59.0998 45.6C59.1998 46.9 58.7998 48 57.8998 48.8C57.2998 49.4 56.4998 49.6 55.6998 49.5C54.9998 49.4 54.1998 49 53.2998 48.2ZM53.2998 40.6C52.6998 39.9 52.1998 39.5 51.5998 39.4C51.0998 39.3 50.5998 39.3 50.2998 39.6C49.9998 39.9 49.8998 40.2 49.8998 40.7C49.8998 41.2 50.2998 41.7 50.7998 42.4C51.3998 43.1 51.8998 43.5 52.3998 43.6C52.8998 43.7 53.2998 43.6 53.5998 43.4C53.8998 43.1 53.9998 42.8 53.9998 42.3C54.0998 41.8 53.7998 41.2 53.2998 40.6Z" fill="#FAF0CC"/>
<path d="M65.4996 42.5L58.5996 30.5L61.5996 28.8L68.0996 35.9L65.1996 26.7L68.1996 25L74.9996 37L73.1996 38.1L67.7996 28.7L71.2996 39.2L69.3996 40.3L61.8996 32L67.2996 41.4L65.4996 42.5Z" fill="#FAF0CC"/>
<path d="M75.5004 29.3L73.5004 29.6C73.3004 28.6 73.4004 27.8 73.8004 27.1C74.1004 26.5 74.8004 26 75.7004 25.6C76.5004 25.3 77.2004 25.1 77.8004 25.2C78.3004 25.3 78.8004 25.4 79.2004 25.8C79.6004 26.1 80.0004 26.8 80.4004 27.9L81.6004 30.8C81.9004 31.6 82.2004 32.2 82.4004 32.5C82.6004 32.9 82.9004 33.2 83.3004 33.6L81.3004 34.4L80.6004 33.5C80.4004 34 80.2004 34.5 79.9004 34.9C79.6004 35.3 79.2004 35.5 78.8004 35.7C78.1004 36 77.4004 36 76.7004 35.7C76.0004 35.4 75.5004 34.8 75.2004 34C75.0004 33.5 74.9004 33 74.9004 32.5C74.9004 32 75.1004 31.6 75.3004 31.2C75.6004 30.8 76.0004 30.4 76.7004 29.9C77.5004 29.3 78.1004 28.8 78.4004 28.5C78.2004 28 78.0004 27.7 77.9004 27.5C77.8004 27.4 77.6004 27.3 77.3004 27.3C77.1004 27.3 76.8004 27.3 76.4004 27.5C76.0004 27.6 75.8004 27.8 75.7004 28.1C75.5004 28.4 75.4004 28.8 75.5004 29.3ZM79.0004 30.2C78.8004 30.4 78.4004 30.7 78.0004 31.1C77.4004 31.5 77.1004 31.9 77.0004 32.1C76.9004 32.4 76.9004 32.7 77.0004 33C77.1004 33.4 77.4004 33.6 77.7004 33.8C78.0004 34 78.3004 34 78.6004 33.8C78.9004 33.7 79.1004 33.5 79.3004 33.2C79.5004 32.9 79.6004 32.6 79.6004 32.3C79.6004 32 79.5004 31.5 79.2004 30.8L79.0004 30.2Z" fill="#FAF0CC"/>
<path d="M91.6002 31.1L89.5002 31.7L88.1002 26.8C87.8002 25.8 87.6002 25.2 87.4002 24.9C87.2002 24.6 87.0002 24.4 86.7002 24.3C86.4002 24.2 86.2002 24.2 85.9002 24.3C85.6002 24.4 85.3002 24.6 85.1002 24.9C84.9002 25.2 84.8002 25.6 84.8002 26C84.8002 26.4 85.0002 27.2 85.3002 28.3L86.6002 32.6L84.5002 33.2L81.7002 23.6L83.6002 23L84.0002 24.4C84.2002 23.8 84.5002 23.2 84.8002 22.8C85.1002 22.4 85.6002 22.1 86.1002 22C86.7002 21.8 87.3002 21.8 87.8002 22C88.3002 22.2 88.7002 22.5 89.0002 23C89.3002 23.4 89.6002 24.1 89.9002 25.1L91.6002 31.1Z" fill="#FAF0CC"/>
<path d="M100.8 29.5L98.7004 29.9L97.9004 24.9C97.7004 23.9 97.6004 23.2 97.4004 22.9C97.3004 22.6 97.1004 22.3 96.8004 22.2C96.5004 22.1 96.3004 22 96.0004 22.1C95.6004 22.2 95.3004 22.3 95.1004 22.6C94.8004 22.9 94.7004 23.2 94.7004 23.7C94.7004 24.1 94.7004 24.9 94.9004 26L95.7004 30.5L93.6004 30.9L91.9004 21.1L93.9004 20.8L94.0004 22C94.3004 21.4 94.6004 20.9 95.0004 20.5C95.4004 20.1 95.9004 19.9 96.4004 19.8C97.0004 19.7 97.6004 19.8 98.1004 20C98.6004 20.2 99.0004 20.6 99.2004 21.1C99.4004 21.6 99.7004 22.3 99.8004 23.3L100.8 29.5Z" fill="#FAF0CC"/>
<path d="M107.2 25.9L109.4 26.2C109.2 27.2 108.8 28 108.2 28.5C107.6 29 106.9 29.3 106 29.4C104.8 29.5 103.8 29.1 103.1 28.3C102.3 27.4 101.8 26.1 101.7 24.4C101.6 22.7 101.9 21.4 102.6 20.3C103.2 19.4 104 18.9 105.1 18.9C106.3 18.8 107.2 19.2 107.9 20C108.7 20.9 109.2 22.4 109.3 24.3V24.6L103.9 24.9C104 25.7 104.2 26.3 104.5 26.7C104.9 27.1 105.3 27.3 105.8 27.3C106.6 27.3 107 26.8 107.2 25.9ZM107.1 23.2C107 22.4 106.8 21.8 106.5 21.5C106.2 21.1 105.8 21 105.3 21C104.8 21 104.5 21.3 104.2 21.7C103.9 22.1 103.8 22.7 103.8 23.5L107.1 23.2Z" fill="#FAF0CC"/>
<path d="M113.1 29H111L111.3 19L113.3 19.1V20.5C113.7 19.8 114 19.4 114.3 19.2C114.6 19 114.9 18.9 115.3 18.9C115.8 18.9 116.3 19.1 116.7 19.4L116 21.7C115.7 21.4 115.3 21.2 115 21.2C114.7 21.2 114.4 21.3 114.2 21.5C114 21.7 113.8 22.1 113.7 22.7C113.6 23.3 113.5 24.4 113.5 25.9L113.1 29Z" fill="#FAF0CC"/>
<path d="M116.5 26.3L118.7 26.2C118.8 27.3 119.3 27.9 120.2 28C120.7 28.1 121.1 28 121.4 27.8C121.7 27.6 121.8 27.4 121.9 27.1C121.9 26.9 121.9 26.7 121.8 26.6C121.7 26.5 121.5 26.3 121.1 26.2C119.4 25.5 118.3 24.9 117.9 24.5C117.4 23.9 117.2 23.1 117.3 22.2C117.4 21.3 117.8 20.6 118.4 20.1C119.1 19.6 119.9 19.4 121.1 19.6C122.2 19.7 122.9 20 123.5 20.5C124 21 124.3 21.7 124.4 22.6L122.3 22.8C122.2 22 121.8 21.5 120.9 21.4C120.4 21.3 120 21.4 119.7 21.5C119.5 21.6 119.3 21.8 119.3 22.1C119.3 22.3 119.4 22.5 119.5 22.7C119.7 22.9 120.3 23.2 121.3 23.6C122.5 24.1 123.2 24.6 123.6 25.1C124 25.6 124.1 26.3 124 27.1C123.9 28.1 123.5 28.8 122.7 29.4C122 29.9 121 30.1 119.9 30C118.9 29.9 118 29.5 117.4 28.9C117 28.1 116.6 27.3 116.5 26.3Z" fill="#FAF0CC"/>
<path d="M130.3 26.1C130.6 25.2 131 24.4 131.6 23.7C132.2 23 132.9 22.6 133.6 22.4C134.3 22.2 135 22.2 135.8 22.4C137.1 22.8 137.9 23.6 138.3 24.8C138.7 26 138.8 27.3 138.4 28.6C138.1 29.6 137.7 30.4 137.1 31.1C136.5 31.8 135.8 32.2 135.1 32.5C134.4 32.7 133.6 32.7 132.9 32.5C131.7 32.2 130.9 31.4 130.4 30.3C129.9 29.1 129.9 27.8 130.3 26.1ZM132.4 26.9C132.1 27.9 132.1 28.7 132.3 29.3C132.5 29.9 132.9 30.3 133.5 30.4C134 30.6 134.5 30.4 135.1 30C135.6 29.6 136 28.9 136.3 27.9C136.6 26.9 136.6 26.2 136.4 25.6C136.2 25 135.8 24.6 135.3 24.4C134.8 24.2 134.3 24.4 133.7 24.8C133.1 25.2 132.7 25.9 132.4 26.9Z" fill="#FAF0CC"/>
<path d="M141.1 24.3L142.2 24.7L142.5 24C142.8 23.2 143.2 22.6 143.5 22.3C143.8 22 144.2 21.8 144.6 21.7C145 21.6 145.5 21.7 146.1 21.9C146.7 22.1 147.2 22.4 147.7 22.9L146.8 24.5C146.5 24.3 146.2 24.1 145.9 24C145.6 23.9 145.4 23.9 145.2 24C145 24.1 144.8 24.4 144.6 24.9L144.3 25.6L145.8 26.2L145 28.1L143.5 27.5L140.6 34.9L138.6 34.1L141.5 26.7L140.4 26.3L141.1 24.3Z" fill="#FAF0CC"/>
<path d="M149 38.8L154.6 28.8L151.7 27.1L152.8 25.1L160.6 29.5L159.5 31.5L156.6 29.9L151 40L149 38.8Z" fill="#FAF0CC"/>
<path d="M159.6 41.8L161.1 43.4C160.3 44.1 159.5 44.4 158.7 44.5C157.9 44.5 157.2 44.3 156.5 43.8C155.5 43.1 155 42.2 154.9 41.2C154.8 40 155.2 38.7 156.2 37.3C157.2 35.9 158.2 35.1 159.5 34.7C160.5 34.4 161.5 34.5 162.3 35.1C163.3 35.8 163.8 36.7 163.8 37.7C163.9 39 163.3 40.4 162.2 42L162 42.2L157.6 39.1C157.2 39.8 157 40.4 157 40.9C157 41.4 157.2 41.9 157.6 42.1C158.2 42.6 158.8 42.4 159.6 41.8ZM161.2 39.6C161.6 39 161.8 38.4 161.8 37.9C161.8 37.4 161.6 37 161.2 36.8C160.8 36.5 160.4 36.5 159.9 36.6C159.4 36.8 158.9 37.1 158.5 37.8L161.2 39.6Z" fill="#FAF0CC"/>
<path d="M159.9 45.9L165.5 44L166.6 38.5L168.6 40.2L168 43.1L170.8 42.1L172.7 43.8L167.5 45.6L166.4 51.5L164.4 49.8L165 46.5L161.8 47.6L159.9 45.9Z" fill="#FAF0CC"/>
<path d="M173.2 48.6L172.2 46.9C173.1 46.4 173.9 46.2 174.6 46.3C175.3 46.4 176 46.8 176.7 47.6C177.3 48.3 177.7 48.9 177.8 49.4C177.9 49.9 177.9 50.4 177.7 50.9C177.5 51.4 177 52 176.1 52.8L173.8 54.9C173.2 55.5 172.7 56 172.5 56.3C172.2 56.6 172 57 171.8 57.5L170.3 55.9L170.9 55C170.3 55 169.8 55 169.4 54.8C169 54.6 168.6 54.4 168.2 54C167.7 53.4 167.4 52.8 167.5 52C167.5 51.3 167.9 50.6 168.5 50C168.9 49.6 169.3 49.4 169.8 49.2C170.2 49.1 170.7 49.1 171.1 49.2C171.5 49.3 172.1 49.6 172.8 50.1C173.7 50.7 174.3 51 174.7 51.2C175.1 50.8 175.3 50.5 175.4 50.4C175.5 50.2 175.5 50 175.4 49.8C175.3 49.6 175.2 49.3 174.9 49C174.6 48.7 174.4 48.6 174.1 48.5C174 48.3 173.6 48.4 173.2 48.6ZM173.6 52.2C173.3 52.1 172.9 51.9 172.4 51.5C171.8 51.1 171.4 50.9 171.1 50.9C170.8 50.9 170.5 51 170.3 51.2C170 51.5 169.9 51.8 169.8 52.1C169.8 52.4 169.9 52.7 170.1 53C170.3 53.2 170.6 53.4 171 53.4C171.4 53.5 171.7 53.5 172 53.3C172.3 53.2 172.7 52.9 173.3 52.4L173.6 52.2Z" fill="#FAF0CC"/>
<path d="M174.5 56.1L176.1 57.6C175.4 58.4 175.3 59.2 175.9 59.9C176.2 60.3 176.5 60.6 176.8 60.6C177.1 60.7 177.4 60.6 177.7 60.4C177.9 60.3 178 60.1 178 60C178 59.8 178 59.6 177.8 59.2C177.1 57.5 176.8 56.3 176.8 55.7C176.9 54.9 177.3 54.2 178 53.7C178.7 53.1 179.5 52.9 180.3 53.1C181.1 53.2 181.8 53.7 182.5 54.6C183.1 55.5 183.5 56.2 183.5 56.9C183.5 57.6 183.2 58.3 182.6 59.1L181 57.7C181.5 57.1 181.5 56.4 181 55.7C180.7 55.3 180.4 55 180.1 54.9C179.8 54.8 179.6 54.8 179.4 55C179.2 55.1 179.1 55.3 179.1 55.6C179.1 55.9 179.3 56.5 179.7 57.5C180.2 58.7 180.3 59.6 180.2 60.2C180.1 60.8 179.7 61.4 179 61.9C178.2 62.5 177.4 62.7 176.5 62.5C175.6 62.4 174.8 61.8 174.1 60.9C173.5 60.1 173.2 59.2 173.2 58.4C173.5 57.7 173.8 56.8 174.5 56.1Z" fill="#FAF0CC"/>
<path d="M139.6 198.9C135 198.9 131.2 197.8 127.9 195.5C125 193.5 121.8 191.7 118.7 190L117.7 189.4C115 187.9 113.9 185.8 114.3 183.1C115.5 176.3 113.4 170.3 107.6 163.8C103 158.6 98.8004 153 94.8004 147.5C93.5004 145.8 92.3004 144.1 91.0004 142.4C90.5004 141.7 90.1004 141.5 88.6004 141.3C83.4004 140.6 79.7004 142.1 76.0004 146.5C70.7004 152.8 68.8004 152.6 62.2004 148.8L62.0004 148.7C61.8004 148.6 61.5004 148.4 61.3004 148.3C60.9004 148.1 60.6004 147.9 60.3004 147.8C55.0004 145.9 54.0004 142.3 53.0004 138.9C52.6004 137.3 52.1004 135.6 51.2004 133.8C50.8004 133.2 48.7004 131.5 47.7004 130.7C46.4004 129.7 45.7004 129.1 45.3004 128.6C40.3004 123 31.8004 112.3 31.5004 111.9L30.9004 111.2V106.7L73.4004 107.4L73.2004 45L111.4 45.1L111.3 47.8C111.2 51.2 111.2 55.7 111.2 60.1C111.2 63.5 111.2 66.7 111.2 69.3C111.2 69.6 111.2 69.8 111.2 69.9C111.3 69.9 111.4 70 111.7 70.1C116.5 71.9 121.6 73.9 126.5 76.1C130.2 77.8 134 78.5 138.3 78.4C142.3 78.3 146.3 78.3 150.2 78.3C152.9 78.3 155.6 78.3 158.3 78.3C160.8 78.3 163 78.9 165.1 80.1C166.8 81.1 169.4 82.2 171.8 83.2C174 84.1 176 85 177.7 85.9C178.5 86.3 180.4 87.4 180.3 94.8L181 110.6C182.4 112.2 185.3 115.8 186.1 117.4L186.4 117.9V118.5C186.3 124.5 186.3 129.9 186.4 135.5C186.4 138.5 184.8 140.1 183.4 141.1C178.4 144.7 173.4 148.2 168.5 151.8C161.5 156.9 154.2 162.1 147 167.2C145.9 168 145.6 168.5 145.6 169.9C145.7 174.3 145.7 178.7 145.7 183.1C145.7 186.6 145.7 190.3 145.7 193.8C145.7 197.2 144.1 198.9 140.7 199C140.4 198.9 140 198.9 139.6 198.9ZM119.5 184.4C119.5 184.4 119.7 184.6 120.2 184.9L121.2 185.4C124.5 187.2 127.8 189 131 191.2C133.6 193.1 136.5 193.8 140.5 193.7C140.5 190.1 140.5 186.5 140.5 183C140.5 178.7 140.5 174.3 140.4 170C140.3 166.9 141.4 164.7 144 162.9C151.2 157.8 158.4 152.6 165.4 147.5C170.4 143.9 175.3 140.3 180.3 136.8C181.1 136.2 181.1 136.1 181.1 135.6C181 130.2 181 125 181.1 119.2C180.2 117.8 177.5 114.4 176.6 113.5L175.9 112.8L175.1 94.9V94.8C175.1 93.1 175 91.2 174.8 90.3C173.4 89.6 171.7 88.9 169.9 88.1C167.3 87 164.5 85.8 162.5 84.6C161.3 83.9 160.1 83.5 158.6 83.6C155.8 83.6 153.1 83.6 150.4 83.6C146.6 83.6 142.6 83.6 138.7 83.7C133.6 83.9 129 83 124.5 81C119.7 78.8 114.7 76.9 110 75.1C107.3 74.1 106 72.2 106.1 69.3C106.1 66.8 106.1 63.6 106.1 60.2C106.1 56.9 106.1 53.4 106.1 50.5L78.6004 50.4L78.7004 112.8L38.5004 112C41.5004 115.7 46.2004 121.4 49.3004 125C49.5004 125.2 50.5004 126 51.1004 126.6C53.7004 128.7 55.3004 130.1 55.9004 131.3C57.1004 133.6 57.7004 135.7 58.2004 137.5C59.1004 140.6 59.4004 141.9 62.1004 142.8C62.9004 143.1 63.6004 143.5 64.1004 143.8C64.3004 143.9 64.4004 144 64.6004 144.1L64.8004 144.2C66.5004 145.2 68.4004 146.2 68.9004 146.2C69.4004 146.1 71.3004 143.9 71.9004 143.1C76.7004 137.3 82.3004 135.1 89.3004 136.1C91.6004 136.4 93.6004 137.1 95.2004 139.3C96.5004 141 97.7004 142.7 99.0004 144.4C103 149.8 107.1 155.3 111.5 160.3C118.4 168 120.9 175.6 119.5 184C119.5 184.3 119.5 184.3 119.5 184.4Z" fill="url(#paint1_linear_499_1378)"/>
<path d="M110.8 220.2C50.1998 220.2 0.799805 170.9 0.799805 110.2C0.799805 49.5 50.0998 0.200012 110.8 0.200012C171.5 0.200012 220.8 49.5 220.8 110.2C220.8 170.9 171.4 220.2 110.8 220.2ZM110.8 10.3C55.6998 10.3 10.8998 55.1 10.8998 110.2C10.8998 165.3 55.6998 210.1 110.8 210.1C165.9 210.1 210.7 165.3 210.7 110.2C210.7 55.1 165.9 10.3 110.8 10.3Z" fill="url(#paint2_linear_499_1378)"/>
<defs>
<linearGradient id="paint0_linear_499_1378" x1="107.3" y1="122.447" x2="133.611" y2="95.414" gradientUnits="userSpaceOnUse">
<stop stop-color="#DC882E"/>
<stop offset="1" stop-color="white"/>
</linearGradient>
<linearGradient id="paint1_linear_499_1378" x1="160.188" y1="32.7767" x2="76.6641" y2="177.444" gradientUnits="userSpaceOnUse">
<stop stop-color="white"/>
<stop offset="0.2083" stop-color="#F6DFC7"/>
<stop offset="0.6856" stop-color="#DE903B"/>
<stop offset="0.7301" stop-color="#DC882E"/>
</linearGradient>
<linearGradient id="paint2_linear_499_1378" x1="214.264" y1="-28.1026" x2="36.2392" y2="209.756" gradientUnits="userSpaceOnUse">
<stop stop-color="white"/>
<stop offset="0.8501" stop-color="#DC882E"/>
</linearGradient>
</defs>
</svg>
