<svg width="220" height="220" viewBox="0 0 220 220" fill="none" xmlns="http://www.w3.org/2000/svg">
<path d="M158.4 127.8C160.9 131.5 159.5 136.6 155.5 137.8C151.3 139.2 146.8 140.3 142.3 138.9C140.1 138.2 137.8 136.1 136.4 140C136.3 140.4 134.9 140.5 134.1 140.5C130.9 140.4 127.7 139.8 124.5 140.1C123.6 140.2 122.9 139.6 122.9 138.9C122.9 137.8 123.7 136.5 121.5 136.6C120.8 136.6 121.1 135.6 121.6 135.1C122.1 134.6 122.6 134.1 122.7 133.3C123 131.8 123.3 130.5 121 130.6C119.8 130.7 118.8 129.7 117.5 129.2C117 130.2 116.5 131.2 116.7 132.2C117.2 135 114.9 136.9 114.6 139.4C114.5 140.8 109 141.1 108.2 139.8C107.6 138.9 108.5 138.5 109 138.1C109.6 137.6 110.7 138.2 111.1 137C109.7 137 108.4 137 107.1 137C106.7 137 106.2 136.7 106.1 136.2C105.9 135.7 106.3 135.2 106.7 135.1C111.5 133.9 109.6 130 109.5 127.3C109.5 123.5 107.1 120.5 104.3 118.2C101.1 115.6 100.3 112.6 101.1 108.7C101.7 105.6 101.7 102.4 102.7 99.3C103.4 97 101 97.3 100.1 97.2C98.1001 97.1 96.2001 97.1 94.6001 95.5C95.0001 94 96.7001 93.8 98.2001 93.1C96.5001 92.3 94.4001 92.4 93.9001 89.9C93.7001 88.6 93.9001 88.3 95.0001 88.2C96.2001 88.1 97.4001 88 98.5001 87.9C99.6001 87.9 100.4 87.6 101.2 86.9C105 83.4 111.2 85 113 89.8C115.9 98 120.9 104.5 127.2 110.4C133 116 138.7 121.8 141.9 129.6C143.4 133.2 145.4 134 149.1 134C153.9 134.2 156.7 132.1 158.4 127.8Z" fill="url(#paint0_linear_3_2)"/>
<path d="M138.8 198.7C134.2 198.7 130.4 197.6 127.1 195.3C124.2 193.3 121 191.5 117.9 189.8L116.9 189.2C114.2 187.7 113.1 185.6 113.5 182.9C114.7 176.1 112.6 170.1 106.8 163.6C102.2 158.4 98.0002 152.8 94.0002 147.3C92.7002 145.6 91.5002 143.9 90.2002 142.2C89.7002 141.5 89.3002 141.3 87.8002 141.1C82.6002 140.4 78.9002 141.9 75.2006 146.3C69.9006 152.6 68.0006 152.4 61.4006 148.6L61.2006 148.5C61.0006 148.4 60.7006 148.2 60.5006 148.1C60.1006 147.9 59.8006 147.7 59.5006 147.6C54.2006 145.7 53.2006 142.1 52.2006 138.7C51.8006 137.1 51.3006 135.4 50.4006 133.6C50.0006 133 47.9006 131.3 46.9006 130.5C45.6006 129.5 44.9006 128.9 44.5006 128.4C39.5006 122.8 31.0006 112.1 30.7006 111.7L30.1006 111V106.5L72.6006 107.2L72.4006 44.8L110.6 44.9L110.5 47.6001C110.4 51.0001 110.4 55.5 110.4 59.9C110.4 63.3 110.4 66.5001 110.4 69.1001C110.4 69.4001 110.4 69.6 110.4 69.7001C110.5 69.7001 110.6 69.8 110.9 69.9C115.7 71.7 120.8 73.7 125.7 75.9C129.4 77.6 133.2 78.3 137.5 78.2001C141.5 78.1001 145.5 78.1001 149.4 78.1001C152.1 78.1001 154.8 78.1001 157.5 78.1001C160 78.1001 162.2 78.7 164.3 79.9C166 80.9 168.6 82 171 83C173.2 83.9 175.2 84.8 176.9 85.7001C177.7 86.1001 179.6 87.2001 179.5 94.6001L180.2 110.4C181.6 112 184.5 115.6 185.3 117.2L185.6 117.7V118.3C185.5 124.3 185.5 129.7 185.6 135.3C185.6 138.3 184 139.9 182.6 140.9C177.6 144.5 172.6 148 167.7 151.6C160.7 156.7 153.4 161.9 146.2 167C145.1 167.8 144.8 168.3 144.8 169.7C144.9 174.1 144.9 178.5 144.9 182.9C144.9 186.4 144.9 190.1 144.9 193.6C144.9 197 143.3 198.7 139.9 198.8C139.6 198.7 139.2 198.7 138.8 198.7ZM118.7 184.2C118.7 184.2 118.9 184.4 119.4 184.7L120.4 185.2C123.7 187 127 188.8 130.2 191C132.8 192.9 135.7 193.6 139.7 193.5C139.7 189.9 139.7 186.3 139.7 182.8C139.7 178.5 139.7 174.1 139.6 169.8C139.5 166.7 140.6 164.5 143.2 162.7C150.4 157.6 157.6 152.4 164.6 147.3C169.6 143.7 174.5 140.1 179.5 136.6C180.3 136 180.3 135.9 180.3 135.4C180.2 130 180.2 124.8 180.3 119C179.4 117.6 176.7 114.2 175.8 113.3L175.1 112.6L174.3 94.7001V94.6001C174.3 92.9001 174.2 91.0001 174 90.1001C172.6 89.4001 170.9 88.7 169.1 87.9C166.5 86.8 163.7 85.6 161.7 84.4C160.5 83.7 159.3 83.3 157.8 83.4C155 83.4 152.3 83.4 149.6 83.4C145.8 83.4 141.8 83.4 137.9 83.5C132.8 83.7 128.2 82.8 123.7 80.8C118.9 78.6 113.9 76.7 109.2 74.9C106.5 73.9 105.2 72.0001 105.3 69.1001C105.3 66.6001 105.3 63.4 105.3 60C105.3 56.7 105.3 53.2 105.3 50.3L77.8006 50.2001L77.9006 112.6L37.7006 111.8C40.7006 115.5 45.4006 121.2 48.5006 124.8C48.7006 125 49.7006 125.8 50.3006 126.4C52.9006 128.5 54.5006 129.9 55.1006 131.1C56.3006 133.4 56.9006 135.5 57.4006 137.3C58.3006 140.4 58.6006 141.7 61.3006 142.6C62.1006 142.9 62.8006 143.3 63.3006 143.6C63.5006 143.7 63.6006 143.8 63.8006 143.9L64.0006 144C65.7006 145 67.6006 146 68.1006 146C68.6006 145.9 70.5006 143.7 71.1006 142.9C75.9006 137.1 81.5002 134.9 88.5002 135.9C90.8002 136.2 92.8002 136.9 94.4002 139.1C95.7002 140.8 96.9002 142.5 98.2002 144.2C102.2 149.6 106.3 155.1 110.7 160.1C117.6 167.8 120.1 175.4 118.7 183.8C118.7 184.1 118.7 184.1 118.7 184.2Z" fill="url(#paint1_linear_3_2)"/>
<path d="M110 220C49.4 220 0 170.7 0 110C0 49.3 49.3 0 110 0C170.7 0 220 49.3 220 110C220 170.7 170.6 220 110 220ZM110 10.1C54.9 10.1 10.1 54.9 10.1 110C10.1 165.1 54.9 209.9 110 209.9C165.1 209.9 209.9 165.1 209.9 110C209.9 54.9 165.1 10.1 110 10.1Z" fill="url(#paint2_linear_3_2)"/>
<defs>
<linearGradient id="paint0_linear_3_2" x1="116.5" y1="122.247" x2="142.811" y2="95.214" gradientUnits="userSpaceOnUse">
<stop stop-color="#DC882E"/>
<stop offset="1" stop-color="white"/>
</linearGradient>
<linearGradient id="paint1_linear_3_2" x1="159.388" y1="32.5768" x2="75.8643" y2="177.244" gradientUnits="userSpaceOnUse">
<stop stop-color="white"/>
<stop offset="0.2083" stop-color="#F6DFC7"/>
<stop offset="0.6856" stop-color="#DE903B"/>
<stop offset="0.7301" stop-color="#DC882E"/>
</linearGradient>
<linearGradient id="paint2_linear_3_2" x1="213.464" y1="-28.3026" x2="35.4394" y2="209.556" gradientUnits="userSpaceOnUse">
<stop stop-color="white"/>
<stop offset="0.8501" stop-color="#DC882E"/>
</linearGradient>
</defs>
</svg>
