<svg width="162" height="19" viewBox="0 0 162 19" fill="none" xmlns="http://www.w3.org/2000/svg">
<path d="M2.16056 18.2368L9.58385 3.54363V3.42432H0.967374V0.78227H12.8566V3.48397L5.44181 18.2368H2.16056ZM22.7067 0.78227V18.2368H19.5448V3.85897H19.4425L15.3601 6.46693V3.5692L19.6982 0.78227H22.7067ZM33.4027 18.4755C32.1755 18.4755 31.0846 18.2652 30.13 17.8448C29.1812 17.4243 28.4312 16.8391 27.88 16.0891C27.3289 15.3391 27.0363 14.4726 27.0022 13.4897H30.2067C30.2351 13.9612 30.3914 14.3732 30.6755 14.7255C30.9596 15.072 31.3374 15.3419 31.809 15.5351C32.2806 15.7283 32.809 15.8249 33.3942 15.8249C34.0192 15.8249 34.5732 15.7169 35.0562 15.501C35.5391 15.2794 35.9169 14.9726 36.1897 14.5806C36.4624 14.1885 36.5959 13.7368 36.5902 13.2255C36.5959 12.697 36.4596 12.2311 36.1812 11.8277C35.9027 11.4243 35.4993 11.109 34.9709 10.8817C34.4482 10.6544 33.8175 10.5408 33.0789 10.5408H31.5363V8.10329H33.0789C33.6868 8.10329 34.2181 7.99818 34.6726 7.78795C35.1329 7.57773 35.4937 7.28227 35.755 6.90159C36.0164 6.51523 36.1442 6.0692 36.1385 5.56352C36.1442 5.0692 36.0334 4.64023 35.8062 4.27659C35.5846 3.90727 35.2692 3.62034 34.8601 3.41579C34.4567 3.21125 33.9823 3.10897 33.4368 3.10897C32.9027 3.10897 32.4084 3.20557 31.9539 3.39875C31.4993 3.59193 31.1329 3.8675 30.8544 4.22545C30.576 4.57772 30.4283 4.99818 30.4113 5.48682H27.3687C27.3914 4.50954 27.6726 3.65159 28.2124 2.91295C28.7579 2.16863 29.4851 1.58909 30.3942 1.17432C31.3033 0.753861 32.3232 0.543634 33.4539 0.543634C34.6187 0.543634 35.63 0.762384 36.488 1.19988C37.3516 1.6317 38.0192 2.21409 38.4908 2.94704C38.9624 3.68 39.1982 4.48966 39.1982 5.37602C39.2039 6.35897 38.9141 7.18284 38.3289 7.84761C37.7493 8.51238 36.988 8.94704 36.0448 9.15159V9.28795C37.2721 9.45841 38.2124 9.91295 38.8658 10.6516C39.5249 11.3845 39.8516 12.2965 39.8459 13.3874C39.8459 14.3647 39.5675 15.2397 39.0107 16.0124C38.4596 16.7794 37.6982 17.3817 36.7266 17.8192C35.7607 18.2567 34.6527 18.4755 33.4027 18.4755ZM50.7401 8.23966V10.7794H42.8821V8.23966H50.7401ZM53.3417 18.2368V15.9527L59.4013 10.0124C59.9809 9.42716 60.4638 8.90727 60.8502 8.45273C61.2366 7.99818 61.5263 7.55784 61.7195 7.1317C61.9127 6.70557 62.0093 6.25102 62.0093 5.76807C62.0093 5.21693 61.8843 4.74534 61.6343 4.35329C61.3843 3.95557 61.0405 3.64875 60.603 3.43284C60.1655 3.21693 59.6684 3.10897 59.1116 3.10897C58.5377 3.10897 58.0348 3.22829 57.603 3.46693C57.1712 3.69988 56.836 4.03227 56.5973 4.46409C56.3644 4.89591 56.2479 5.41011 56.2479 6.0067H53.2394C53.2394 4.89875 53.4922 3.93568 53.9979 3.1175C54.5036 2.29932 55.1996 1.66579 56.086 1.21693C56.978 0.768066 58.0008 0.543634 59.1542 0.543634C60.3246 0.543634 61.353 0.762384 62.2394 1.19988C63.1258 1.63738 63.8133 2.23682 64.3019 2.99818C64.7962 3.75954 65.0434 4.62886 65.0434 5.60613C65.0434 6.25954 64.9184 6.90159 64.6684 7.53227C64.4184 8.16295 63.978 8.86182 63.3473 9.62886C62.7223 10.3959 61.8445 11.3249 60.7138 12.4158L57.7053 15.4755V15.5948H65.3076V18.2368H53.3417ZM74.6996 18.5692C73.2962 18.5692 72.0917 18.2141 71.086 17.5039C70.086 16.788 69.3161 15.7567 68.7763 14.4101C68.2422 13.0578 67.9752 11.43 67.9752 9.52659C67.9809 7.62318 68.2508 6.00386 68.7848 4.66863C69.3246 3.32772 70.0945 2.305 71.0945 1.60045C72.1002 0.895907 73.3019 0.543634 74.6996 0.543634C76.0973 0.543634 77.2991 0.895907 78.3047 1.60045C79.3104 2.305 80.0803 3.32772 80.6144 4.66863C81.1542 6.00954 81.4241 7.62886 81.4241 9.52659C81.4241 11.4357 81.1542 13.0664 80.6144 14.4186C80.0803 15.7652 79.3104 16.7936 78.3047 17.5039C77.3047 18.2141 76.103 18.5692 74.6996 18.5692ZM74.6996 15.9016C75.7905 15.9016 76.6513 15.3647 77.282 14.2908C77.9184 13.2112 78.2366 11.6232 78.2366 9.52659C78.2366 8.14023 78.0917 6.97545 77.8019 6.03227C77.5121 5.08909 77.103 4.37886 76.5746 3.90159C76.0462 3.41863 75.4212 3.17716 74.6996 3.17716C73.6144 3.17716 72.7564 3.71693 72.1258 4.79647C71.4951 5.87034 71.1769 7.44704 71.1712 9.52659C71.1655 10.9186 71.3047 12.0891 71.5888 13.038C71.8786 13.9868 72.2877 14.7027 72.8161 15.1857C73.3445 15.663 73.9723 15.9016 74.6996 15.9016ZM91.3552 0.78227V18.2368H88.1932V3.85897H88.091L84.0086 6.46693V3.5692L88.3466 0.78227H91.3552ZM103.756 8.23966V10.7794H95.8978V8.23966H103.756ZM106.95 18.2368L114.373 3.54363V3.42432H105.756V0.78227H117.646V3.48397L110.231 18.2368H106.95ZM126.23 18.4755C125.094 18.4755 124.077 18.2624 123.179 17.8362C122.281 17.4044 121.568 16.8135 121.04 16.0635C120.517 15.3135 120.239 14.4556 120.205 13.4897H123.273C123.33 14.2056 123.639 14.7908 124.202 15.2453C124.764 15.6942 125.44 15.9186 126.23 15.9186C126.849 15.9186 127.401 15.7766 127.884 15.4925C128.367 15.2084 128.747 14.8135 129.026 14.3078C129.304 13.8022 129.44 13.2255 129.435 12.5777C129.44 11.9186 129.301 11.3334 129.017 10.822C128.733 10.3107 128.344 9.91011 127.849 9.62034C127.355 9.32488 126.787 9.17716 126.145 9.17716C125.622 9.17148 125.108 9.26807 124.602 9.46693C124.097 9.66579 123.696 9.92716 123.401 10.251L120.545 9.78227L121.457 0.78227H131.582V3.42432H124.074L123.571 8.05216H123.673C123.997 7.67147 124.455 7.35613 125.045 7.10613C125.636 6.85045 126.284 6.72261 126.989 6.72261C128.045 6.72261 128.989 6.97261 129.818 7.47261C130.648 7.96693 131.301 8.64875 131.778 9.51807C132.256 10.3874 132.494 11.3817 132.494 12.501C132.494 13.6544 132.227 14.6828 131.693 15.5862C131.165 16.484 130.429 17.1914 129.486 17.7084C128.548 18.2198 127.463 18.4755 126.23 18.4755ZM135.349 18.2368V15.9527L141.409 10.0124C141.989 9.42716 142.472 8.90727 142.858 8.45273C143.244 7.99818 143.534 7.55784 143.727 7.1317C143.92 6.70557 144.017 6.25102 144.017 5.76807C144.017 5.21693 143.892 4.74534 143.642 4.35329C143.392 3.95557 143.048 3.64875 142.611 3.43284C142.173 3.21693 141.676 3.10897 141.119 3.10897C140.545 3.10897 140.043 3.22829 139.611 3.46693C139.179 3.69988 138.844 4.03227 138.605 4.46409C138.372 4.89591 138.256 5.41011 138.256 6.0067H135.247C135.247 4.89875 135.5 3.93568 136.006 3.1175C136.511 2.29932 137.207 1.66579 138.094 1.21693C138.986 0.768066 140.009 0.543634 141.162 0.543634C142.332 0.543634 143.361 0.762384 144.247 1.19988C145.134 1.63738 145.821 2.23682 146.31 2.99818C146.804 3.75954 147.051 4.62886 147.051 5.60613C147.051 6.25954 146.926 6.90159 146.676 7.53227C146.426 8.16295 145.986 8.86182 145.355 9.62886C144.73 10.3959 143.852 11.3249 142.722 12.4158L139.713 15.4755V15.5948H147.315V18.2368H135.349ZM150.895 18.2368L158.318 3.54363V3.42432H149.702V0.78227H161.591V3.48397L154.176 18.2368H150.895Z" fill="white"/>
</svg>
