<svg width="161" height="19" viewBox="0 0 161 19" fill="none" xmlns="http://www.w3.org/2000/svg">
<path d="M1.30216 18.2368L8.72545 3.54363V3.42432H0.108976V0.78227H11.9982V3.48397L4.58341 18.2368H1.30216ZM21.8483 0.78227V18.2368H18.6864V3.85897H18.5841L14.5017 6.46693V3.5692L18.8398 0.78227H21.8483ZM32.5443 18.4755C31.3171 18.4755 30.2262 18.2652 29.2716 17.8448C28.3228 17.4243 27.5728 16.8391 27.0216 16.0891C26.4705 15.3391 26.1779 14.4726 26.1438 13.4897H29.3483C29.3767 13.9612 29.533 14.3732 29.8171 14.7255C30.1012 15.072 30.479 15.3419 30.9506 15.5351C31.4222 15.7283 31.9506 15.8249 32.5358 15.8249C33.1608 15.8249 33.7148 15.7169 34.1978 15.501C34.6807 15.2794 35.0585 14.9726 35.3313 14.5806C35.604 14.1885 35.7375 13.7368 35.7318 13.2255C35.7375 12.697 35.6012 12.2311 35.3228 11.8277C35.0443 11.4243 34.6409 11.109 34.1125 10.8817C33.5898 10.6544 32.9591 10.5408 32.2205 10.5408H30.6779V8.10329H32.2205C32.8284 8.10329 33.3597 7.99818 33.8142 7.78795C34.2745 7.57773 34.6353 7.28227 34.8966 6.90159C35.158 6.51523 35.2858 6.0692 35.2801 5.56352C35.2858 5.0692 35.175 4.64023 34.9478 4.27659C34.7262 3.90727 34.4108 3.62034 34.0017 3.41579C33.5983 3.21125 33.1239 3.10897 32.5784 3.10897C32.0443 3.10897 31.55 3.20557 31.0955 3.39875C30.6409 3.59193 30.2745 3.8675 29.996 4.22545C29.7176 4.57772 29.5699 4.99818 29.5529 5.48682H26.5103C26.533 4.50954 26.8142 3.65159 27.354 2.91295C27.8995 2.16863 28.6267 1.58909 29.5358 1.17432C30.4449 0.753861 31.4648 0.543634 32.5955 0.543634C33.7603 0.543634 34.7716 0.762384 35.6296 1.19988C36.4932 1.6317 37.1608 2.21409 37.6324 2.94704C38.104 3.68 38.3398 4.48966 38.3398 5.37602C38.3455 6.35897 38.0557 7.18284 37.4705 7.84761C36.8909 8.51238 36.1296 8.94704 35.1864 9.15159V9.28795C36.4137 9.45841 37.354 9.91295 38.0074 10.6516C38.6665 11.3845 38.9932 12.2965 38.9875 13.3874C38.9875 14.3647 38.7091 15.2397 38.1523 16.0124C37.6012 16.7794 36.8398 17.3817 35.8682 17.8192C34.9023 18.2567 33.7943 18.4755 32.5443 18.4755ZM49.8817 8.23966V10.7794H42.0237V8.23966H49.8817ZM52.4833 18.2368V15.9527L58.5429 10.0124C59.1225 9.42716 59.6054 8.90727 59.9918 8.45273C60.3782 7.99818 60.6679 7.55784 60.8611 7.1317C61.0543 6.70557 61.1509 6.25102 61.1509 5.76807C61.1509 5.21693 61.0259 4.74534 60.7759 4.35329C60.5259 3.95557 60.1821 3.64875 59.7446 3.43284C59.3071 3.21693 58.81 3.10897 58.2532 3.10897C57.6793 3.10897 57.1764 3.22829 56.7446 3.46693C56.3128 3.69988 55.9776 4.03227 55.7389 4.46409C55.506 4.89591 55.3895 5.41011 55.3895 6.0067H52.381C52.381 4.89875 52.6338 3.93568 53.1395 3.1175C53.6452 2.29932 54.3412 1.66579 55.2276 1.21693C56.1196 0.768066 57.1424 0.543634 58.2958 0.543634C59.4662 0.543634 60.4946 0.762384 61.381 1.19988C62.2674 1.63738 62.9549 2.23682 63.4435 2.99818C63.9378 3.75954 64.185 4.62886 64.185 5.60613C64.185 6.25954 64.06 6.90159 63.81 7.53227C63.56 8.16295 63.1196 8.86182 62.4889 9.62886C61.8639 10.3959 60.9861 11.3249 59.8554 12.4158L56.8469 15.4755V15.5948H64.4492V18.2368H52.4833ZM73.8412 18.5692C72.4378 18.5692 71.2333 18.2141 70.2276 17.5039C69.2276 16.788 68.4577 15.7567 67.9179 14.4101C67.3838 13.0578 67.1168 11.43 67.1168 9.52659C67.1225 7.62318 67.3924 6.00386 67.9264 4.66863C68.4662 3.32772 69.2361 2.305 70.2361 1.60045C71.2418 0.895907 72.4435 0.543634 73.8412 0.543634C75.2389 0.543634 76.4407 0.895907 77.4463 1.60045C78.452 2.305 79.2219 3.32772 79.756 4.66863C80.2958 6.00954 80.5657 7.62886 80.5657 9.52659C80.5657 11.4357 80.2958 13.0664 79.756 14.4186C79.2219 15.7652 78.452 16.7936 77.4463 17.5039C76.4463 18.2141 75.2446 18.5692 73.8412 18.5692ZM73.8412 15.9016C74.9321 15.9016 75.7929 15.3647 76.4236 14.2908C77.06 13.2112 77.3782 11.6232 77.3782 9.52659C77.3782 8.14023 77.2333 6.97545 76.9435 6.03227C76.6537 5.08909 76.2446 4.37886 75.7162 3.90159C75.1878 3.41863 74.5628 3.17716 73.8412 3.17716C72.756 3.17716 71.898 3.71693 71.2674 4.79647C70.6367 5.87034 70.3185 7.44704 70.3128 9.52659C70.3071 10.9186 70.4463 12.0891 70.7304 13.038C71.0202 13.9868 71.4293 14.7027 71.9577 15.1857C72.4861 15.663 73.1139 15.9016 73.8412 15.9016ZM90.4968 0.78227V18.2368H87.3348V3.85897H87.2326L83.1502 6.46693V3.5692L87.4882 0.78227H90.4968ZM102.897 8.23966V10.7794H95.0394V8.23966H102.897ZM106.091 18.2368L113.515 3.54363V3.42432H104.898V0.78227H116.787V3.48397L109.372 18.2368H106.091ZM125.372 18.4755C124.235 18.4755 123.218 18.2624 122.321 17.8362C121.423 17.4044 120.71 16.8135 120.181 16.0635C119.659 15.3135 119.38 14.4556 119.346 13.4897H122.414C122.471 14.2056 122.781 14.7908 123.343 15.2453C123.906 15.6942 124.582 15.9186 125.372 15.9186C125.991 15.9186 126.542 15.7766 127.025 15.4925C127.508 15.2084 127.889 14.8135 128.167 14.3078C128.446 13.8022 128.582 13.2255 128.576 12.5777C128.582 11.9186 128.443 11.3334 128.159 10.822C127.875 10.3107 127.485 9.91011 126.991 9.62034C126.497 9.32488 125.929 9.17716 125.287 9.17716C124.764 9.17148 124.25 9.26807 123.744 9.46693C123.238 9.66579 122.838 9.92716 122.542 10.251L119.687 9.78227L120.599 0.78227H130.724V3.42432H123.216L122.713 8.05216H122.815C123.139 7.67147 123.596 7.35613 124.187 7.10613C124.778 6.85045 125.426 6.72261 126.13 6.72261C127.187 6.72261 128.13 6.97261 128.96 7.47261C129.789 7.96693 130.443 8.64875 130.92 9.51807C131.397 10.3874 131.636 11.3817 131.636 12.501C131.636 13.6544 131.369 14.6828 130.835 15.5862C130.306 16.484 129.571 17.1914 128.627 17.7084C127.69 18.2198 126.605 18.4755 125.372 18.4755ZM134.491 18.2368V15.9527L140.551 10.0124C141.13 9.42716 141.613 8.90727 142 8.45273C142.386 7.99818 142.676 7.55784 142.869 7.1317C143.062 6.70557 143.159 6.25102 143.159 5.76807C143.159 5.21693 143.034 4.74534 142.784 4.35329C142.534 3.95557 142.19 3.64875 141.752 3.43284C141.315 3.21693 140.818 3.10897 140.261 3.10897C139.687 3.10897 139.184 3.22829 138.752 3.46693C138.321 3.69988 137.985 4.03227 137.747 4.46409C137.514 4.89591 137.397 5.41011 137.397 6.0067H134.389C134.389 4.89875 134.642 3.93568 135.147 3.1175C135.653 2.29932 136.349 1.66579 137.235 1.21693C138.127 0.768066 139.15 0.543634 140.304 0.543634C141.474 0.543634 142.502 0.762384 143.389 1.19988C144.275 1.63738 144.963 2.23682 145.451 2.99818C145.946 3.75954 146.193 4.62886 146.193 5.60613C146.193 6.25954 146.068 6.90159 145.818 7.53227C145.568 8.16295 145.127 8.86182 144.497 9.62886C143.872 10.3959 142.994 11.3249 141.863 12.4158L138.855 15.4755V15.5948H146.457V18.2368H134.491ZM150.037 18.2368L157.46 3.54363V3.42432H148.843V0.78227H160.733V3.48397L153.318 18.2368H150.037Z" fill="#0B0B0B"/>
</svg>
