<svg width="33" height="33" viewBox="0 0 33 33" fill="none" xmlns="http://www.w3.org/2000/svg">
<path d="M23.0244 29.4361C23.3785 29.4381 23.7295 29.3696 24.0568 29.2345C24.3842 29.0995 24.6814 28.9005 24.931 28.6494L28.5444 25.0361C28.7927 24.7862 28.9321 24.4483 28.9321 24.0961C28.9321 23.7438 28.7927 23.4059 28.5444 23.1561L23.211 17.8227C22.9612 17.5744 22.6233 17.435 22.271 17.435C21.9188 17.435 21.5808 17.5744 21.331 17.8227L19.1977 19.9427C17.7207 19.5489 16.3528 18.8239 15.1977 17.8227C14.1992 16.6658 13.4745 15.2985 13.0777 13.8227L15.1977 11.6894C15.446 11.4396 15.5854 11.1016 15.5854 10.7494C15.5854 10.3971 15.446 10.0592 15.1977 9.80939L9.86437 4.47606C9.61455 4.22773 9.27661 4.08834 8.92437 4.08834C8.57212 4.08834 8.23418 4.22773 7.98437 4.47606L4.38437 8.10273C4.13321 8.35238 3.93429 8.64956 3.79923 8.97692C3.66416 9.30429 3.59566 9.65527 3.5977 10.0094C3.71866 15.1325 5.7658 20.0218 9.33103 23.7027C13.012 27.268 17.9013 29.3151 23.0244 29.4361V29.4361ZM8.93103 7.31606L12.3844 10.7694L10.6644 12.4894C10.5015 12.642 10.3795 12.833 10.3096 13.045C10.2397 13.257 10.2241 13.4832 10.2644 13.7027C10.7627 15.9299 11.8178 17.9943 13.331 19.7027C15.0382 21.2179 17.1031 22.2732 19.331 22.7694C19.5473 22.8146 19.7713 22.8054 19.9831 22.7425C20.1949 22.6797 20.3878 22.5652 20.5444 22.4094L22.2644 20.6494L25.7177 24.1027L23.051 26.7694C18.6293 26.6555 14.4104 24.8909 11.2244 21.8227C8.14825 18.6354 6.37851 14.4109 6.26437 9.98273L8.93103 7.31606ZM27.5977 14.7694H30.2644C30.2989 13.1841 30.0122 11.6081 29.4214 10.1366C28.8305 8.66507 27.9479 7.32839 26.8266 6.20712C25.7054 5.08585 24.3687 4.20321 22.8972 3.6124C21.4256 3.02158 19.8497 2.73482 18.2644 2.76939V5.43606C19.5016 5.39326 20.7344 5.60541 21.8861 6.05931C23.0378 6.5132 24.0839 7.19915 24.9592 8.07451C25.8346 8.94988 26.5206 9.99593 26.9745 11.1477C27.4284 12.2994 27.6405 13.5322 27.5977 14.7694Z" fill="white"/>
<path d="M18.2644 10.7692C21.0644 10.7692 22.2644 11.9692 22.2644 14.7692H24.931C24.931 10.4759 22.5577 8.10254 18.2644 8.10254V10.7692Z" fill="white"/>
</svg>
