<svg width="33" height="23" viewBox="0 0 33 23" fill="none" xmlns="http://www.w3.org/2000/svg">
<path d="M30.6453 0.102539H3.21674C2.61054 0.102539 2.02915 0.343355 1.6005 0.772009C1.17185 1.20066 0.93103 1.78204 0.93103 2.38825V20.674C0.93103 21.2802 1.17185 21.8616 1.6005 22.2902C2.02915 22.7189 2.61054 22.9597 3.21674 22.9597H30.6453C31.2515 22.9597 31.8329 22.7189 32.2616 22.2902C32.6902 21.8616 32.931 21.2802 32.931 20.674V2.38825C32.931 1.78204 32.6902 1.20066 32.2616 0.772009C31.8329 0.343355 31.2515 0.102539 30.6453 0.102539V0.102539ZM28.131 2.38825L16.931 10.1368L5.73103 2.38825H28.131ZM3.21674 20.674V3.42825L16.2796 12.4683C16.4709 12.601 16.6982 12.6721 16.931 12.6721C17.1639 12.6721 17.3912 12.601 17.5825 12.4683L30.6453 3.42825V20.674H3.21674Z" fill="white"/>
</svg>
