<svg width="18" height="18" viewBox="0 0 18 18" fill="none" xmlns="http://www.w3.org/2000/svg">
<path d="M15.354 2.624C13.604 0.883 11.466 0 9 0C6.511 0 4.367 0.884 2.627 2.625C0.884 4.366 0 6.512 0 9C0 11.465 0.883 13.603 2.624 15.354C4.365 17.11 6.51 18 9 18C11.467 18 13.605 17.11 15.356 15.357C17.111 13.604 18 11.465 18 9C18 6.512 17.11 4.366 15.354 2.624ZM13.942 13.943C12.805 15.082 11.506 15.731 10 15.928V11H12V9H10V7.6C10 7.52112 10.0156 7.44302 10.0458 7.37016C10.076 7.2973 10.1203 7.23111 10.1761 7.17538C10.2319 7.11965 10.2982 7.07548 10.3711 7.04539C10.444 7.01529 10.5221 6.99987 10.601 7H12V5H10.603C9.861 5 9.242 5.273 8.746 5.822C8.25 6.369 8 7.037 8 7.83V9H6V11H8V15.93C6.478 15.735 5.174 15.085 4.043 13.946C2.668 12.562 2 10.944 2 9C2 7.034 2.667 5.412 4.042 4.04C5.412 2.667 7.034 2 9 2C10.945 2 12.562 2.668 13.945 4.043C15.328 5.415 16 7.037 16 9C16 10.941 15.327 12.559 13.942 13.943V13.943Z" fill="#FCE7AA"/>
</svg>
