<svg width="830" height="263" viewBox="0 0 830 263" fill="none" xmlns="http://www.w3.org/2000/svg">
<path d="M463.1 195.5V200.7H448.9V208.3H461V213.5H448.9V221.7H463.4V226.9H443V195.4H463.1V195.5ZM480.9 202.2C483.3 202.2 485.3 202.8 486.8 204C488.3 205.2 489.1 206.8 489.1 208.8V209.8H483.5V209.7C483.5 208.7 483.2 207.9 482.7 207.5C482.2 207 481.6 206.7 480.7 206.7C479.8 206.7 479.1 206.9 478.6 207.3C478.1 207.7 477.8 208.3 477.8 209.1C477.8 210 478.1 210.6 478.8 211C479.5 211.4 480.6 211.8 482.1 212.1C483.6 212.5 484.9 212.9 485.9 213.3C486.9 213.7 487.8 214.5 488.4 215.5C489.1 216.5 489.5 217.9 489.5 219.6C489.5 224.8 486.5 227.5 480.5 227.5C477.8 227.5 475.6 226.8 474 225.4C472.4 224 471.7 222.2 471.7 219.8V219.2H477.3V219.5C477.3 220.7 477.7 221.5 478.3 222.1C478.9 222.6 479.7 222.9 480.6 222.9C481.5 222.9 482.2 222.7 482.8 222.3C483.4 221.9 483.7 221.2 483.7 220.3C483.7 219.3 483.3 218.6 482.6 218.2C481.9 217.8 480.7 217.3 479.1 216.8C477.6 216.4 476.4 216 475.4 215.6C474.4 215.1 473.6 214.4 472.9 213.5C472.2 212.5 471.9 211.2 471.9 209.5C471.9 207.1 472.7 205.3 474.3 204.1C476.3 202.9 478.4 202.2 480.9 202.2ZM508.2 207.4H504.7V220.8C504.7 221.4 504.9 221.9 505.2 222.3C505.5 222.6 506 222.8 506.6 222.8H508.2V226.9C507.8 227 507.3 227.1 506.6 227.3C506 227.4 505.4 227.5 504.9 227.5C502.9 227.5 501.4 226.9 500.5 225.6C499.6 224.4 499.2 222.8 499.2 221V207.4H496.7V202.8H499.2L500 196H504.7V202.8H508.2V207.4ZM516 220.7H522.3V227H516V220.7ZM565.8 227H546.7V222.4H553.8V202.7H546.6V199C548 198.8 549.7 198.4 551.6 197.8C553.5 197.1 555.2 196.4 556.6 195.5H559.4V222.4H565.9V227H565.8ZM581 194.9C584.1 194.9 586.5 196.1 588.1 198.5C589.7 200.8 590.5 204.8 590.5 210.4C590.5 216.7 589.7 221.1 588.2 223.7C586.7 226.3 584.4 227.6 581.4 227.6C578.6 227.6 576.5 226.7 575.2 224.8C573.9 222.9 573.2 220.4 573.2 217.4H578.8C578.8 219.3 579 220.7 579.5 221.6C580 222.5 580.6 223 581.6 223C582.9 223 583.8 222.2 584.2 220.7C584.6 219.1 584.8 216.5 584.9 212.9C584.4 213.7 583.7 214.3 582.8 214.7C581.9 215.1 581 215.4 580 215.4C577.5 215.4 575.6 214.5 574.3 212.6C573 210.7 572.3 208.2 572.3 205.2C572.3 203.1 572.7 201.3 573.4 199.8C574.2 198.3 575.2 197.1 576.5 196.2C577.8 195.3 579.3 194.9 581 194.9ZM581.2 199.6C580.1 199.6 579.3 200.1 578.7 201.2C578.2 202.2 577.9 203.5 577.9 205.2C577.9 207 578.2 208.4 578.7 209.4C579.3 210.4 580.1 210.9 581.2 210.9C582.3 210.9 583.1 210.4 583.6 209.4C584.2 208.4 584.4 207 584.4 205.2C584.4 203.5 584.1 202.2 583.6 201.2C583 200.1 582.2 199.6 581.2 199.6ZM606.9 194.9C610 194.9 612.4 196.1 614 198.5C615.6 200.8 616.4 204.8 616.4 210.4C616.4 216.7 615.6 221.1 614.1 223.7C612.6 226.3 610.3 227.6 607.3 227.6C604.5 227.6 602.4 226.7 601.1 224.8C599.7 222.9 599.1 220.4 599.1 217.4H604.8C604.8 219.3 605 220.7 605.4 221.6C605.8 222.5 606.6 223 607.6 223C608.9 223 609.8 222.2 610.1 220.7C610.5 219.1 610.7 216.5 610.8 212.9C610.3 213.7 609.6 214.3 608.7 214.7C607.8 215.1 606.9 215.4 605.9 215.4C603.4 215.4 601.6 214.5 600.3 212.6C599 210.7 598.3 208.2 598.3 205.2C598.3 203.1 598.7 201.3 599.4 199.8C600.2 198.3 601.2 197.1 602.5 196.2C603.8 195.3 605.3 194.9 606.9 194.9ZM607.1 199.6C606 199.6 605.2 200.1 604.6 201.2C604.1 202.2 603.8 203.5 603.8 205.2C603.8 207 604.1 208.4 604.6 209.4C605.2 210.4 606 210.9 607.1 210.9C608.2 210.9 609 210.4 609.5 209.4C610.1 208.4 610.4 207 610.4 205.2C610.4 203.5 610.1 202.2 609.5 201.2C609 200.1 608.2 199.6 607.1 199.6ZM642.7 199.2C640.1 203.1 637.9 207.2 636.1 211.6C634.3 216 633.4 220.3 633.4 224.6C633.4 225.4 633.4 226.2 633.4 227H627.4C627.4 222.3 628.3 217.6 630.1 212.9C631.9 208.2 634.1 204.1 636.8 200.7H623.9V195.6H642.7V199.2Z" fill="url(#paint0_linear_498_1310)"/>
<path d="M427.4 129.9C431.6 129.9 434.8 131.3 437 134C439.3 136.7 440.5 140.8 440.5 146.2C440.5 151.6 439.3 155.7 437 158.4C434.7 161.1 431.5 162.5 427.4 162.5C423.3 162.5 420 161.1 417.7 158.4C415.4 155.7 414.3 151.6 414.3 146.2C414.3 140.8 415.4 136.7 417.7 134C420 131.3 423.2 129.9 427.4 129.9ZM427.4 134.9C425.1 134.9 423.3 135.8 422.2 137.6C421 139.4 420.4 141.8 420.4 145.1V147.4C420.4 150.6 421 153.1 422.2 154.9C423.4 156.7 425.1 157.5 427.4 157.5C429.7 157.5 431.4 156.6 432.6 154.9C433.8 153.1 434.4 150.7 434.4 147.4V145.1C434.4 141.9 433.8 139.4 432.6 137.6C431.4 135.9 429.7 134.9 427.4 134.9ZM473.3 130.5V135.7H460.7V143.6H471.5V148.8H460.7V162H454.8V130.5H473.3ZM520.1 135.7V162H514.2V135.7H506.4V130.5H527.9V135.7H520.1ZM561.5 130.5V135.7H547.3V143.3H559.5V148.5H547.3V156.7H561.8V161.9H541.4V130.4H561.5V130.5ZM598.9 162H592.4L586.3 150.1H586L580 162H573.8L582.7 145.4L574.6 130.5H581.2L586.5 140.8H586.7L591.9 130.5H598L589.8 145.4L598.9 162ZM630.1 162L628.2 155.8H616.6L614.7 162H609L619.2 130.5H626L636.2 162H630.1ZM622.2 135.8C622.2 136.1 622.1 136.7 621.9 137.7C621.7 138.7 621.6 139.5 621.4 140.1L618.2 150.7H626.7L623.5 140.1C623.3 139.4 623.1 138.6 622.9 137.7C622.7 136.8 622.6 136.1 622.5 135.8H622.2ZM658.7 129.9C661.7 129.9 664.2 130.7 666.1 132.3C668 133.8 669 136.2 669 139.2V139.8H663V139.4C663 138.1 662.6 137 661.9 136.2C661.1 135.4 660.1 135 658.7 135C657.3 135 656.2 135.3 655.5 135.9C654.7 136.5 654.4 137.4 654.4 138.4C654.4 139.3 654.6 140 655.2 140.5C655.7 141 656.4 141.5 657.1 141.8C657.9 142.1 659 142.5 660.3 142.9C662.3 143.5 663.9 144.1 665.1 144.8C666.4 145.4 667.4 146.3 668.3 147.6C669.2 148.8 669.7 150.5 669.7 152.5C669.7 155.9 668.7 158.5 666.7 160.1C664.7 161.7 662 162.5 658.5 162.5C656.5 162.5 654.7 162.1 653 161.4C651.4 160.6 650.1 159.5 649.1 158.1C648.1 156.6 647.6 154.9 647.6 152.7V151.7H653.7V152.5C653.7 154 654.1 155.2 655 156.1C655.9 157 657.2 157.5 658.8 157.5C660.4 157.5 661.6 157.1 662.4 156.4C663.2 155.7 663.5 154.8 663.5 153.8C663.5 152.8 663.2 151.9 662.7 151.2C662.2 150.5 661.5 150 660.7 149.6C659.9 149.2 658.7 148.8 657.3 148.3C655.4 147.7 653.8 147.1 652.7 146.5C651.5 145.9 650.5 144.9 649.6 143.7C648.8 142.4 648.4 140.8 648.4 138.7C648.4 136.8 648.9 135.2 649.8 133.8C650.8 132.5 652 131.5 653.6 130.8C655 130.2 656.8 129.9 658.7 129.9Z" fill="url(#paint1_linear_498_1310)"/>
<path d="M333.9 34L315.2 59.6L334.5 97H321.2L307.5 68.8L297.7 80.9V97H285.8V34H297.7V66.2L320.8 34H333.9ZM336.2 66.7H358.3V77.6H336.2V66.7ZM380 32.8C386.3 32.8 391 35.2 394.2 39.9C397.4 44.6 399 52.5 399 63.6C399 76.1 397.5 85 394.4 90.3C391.3 95.5 386.8 98.1 380.8 98.1C375.2 98.1 371 96.2 368.3 92.5C365.6 88.8 364.2 83.8 364.2 77.6H375.5C375.5 81.3 375.9 84.1 376.8 86C377.7 87.9 379.1 88.8 381.1 88.8C383.7 88.8 385.4 87.2 386.2 84.1C387 80.9 387.5 75.7 387.6 68.6C386.5 70.1 385.1 71.4 383.4 72.3C381.7 73.2 379.8 73.6 377.8 73.6C372.9 73.6 369.1 71.7 366.5 68C363.9 64.2 362.6 59.3 362.6 53.2C362.6 49.1 363.3 45.5 364.8 42.4C366.3 39.3 368.4 37 371 35.3C373.7 33.6 376.7 32.8 380 32.8ZM380.4 42.1C378.3 42.1 376.6 43.1 375.5 45.2C374.4 47.2 373.9 49.9 373.9 53.2C373.9 56.7 374.4 59.5 375.5 61.6C376.6 63.6 378.3 64.6 380.4 64.6C382.5 64.6 384.1 63.6 385.2 61.6C386.3 59.5 386.9 56.7 386.9 53.2C386.9 49.9 386.3 47.2 385.2 45.2C384.2 43.1 382.6 42.1 380.4 42.1ZM469.8 97V56.9C469.8 55 469.8 53 469.9 51C470 48.9 470.1 47.5 470.2 46.7H469.8C469.7 47.1 469.5 47.8 469.4 48.9L468.3 53.8L458.8 97H448.6L439.8 56.5C439.1 54.1 438.4 50.8 437.5 46.7H437.2C437.3 47.5 437.3 49 437.4 51.1C437.5 53.2 437.6 55.2 437.6 56.9V97H427.6V34H444.1L451.9 68.7C452.3 70.4 452.8 73 453.3 76.4C453.9 79.7 454.3 81.9 454.4 83H454.8C454.9 81.9 455.2 79.6 455.7 76.2C456.2 72.7 456.6 70.2 456.9 68.7L464.6 34H480.6V97H469.8ZM527.8 97L524 84.6H500.7L496.9 97H485.5L505.8 34H519.5L539.8 97H527.8ZM512.1 44.5C512 45.1 511.8 46.4 511.5 48.3C511.2 50.2 510.8 51.8 510.4 53L503.9 74.1H520.8L514.4 53C514 51.7 513.6 50.1 513.2 48.2C512.8 46.3 512.6 45.1 512.5 44.5H512.1ZM578.4 97L558.8 62.3L556 56.3L555.6 56.6C555.6 57 555.6 57.7 555.7 58.8C555.8 59.8 555.8 60.8 555.8 61.8V97H545.4V34H555.8L575.3 68.7C575.7 69.4 576.2 70.4 576.9 71.8C577.6 73.1 578 74 578.2 74.5L578.4 74.3V69V34H588.8V97H578.4ZM632.8 97L613.2 62.3L610.4 56.3L610 56.6C610 57 610 57.7 610.1 58.8C610.2 59.8 610.2 60.8 610.2 61.8V97H599.8V34H610.2L629.7 68.7C630.1 69.4 630.6 70.4 631.3 71.8C632 73.1 632.4 74 632.6 74.5L632.8 74.3V69V34H643.2V97H632.8ZM694.4 34V44.4H666V59.5H690.3V70H666V86.5H695V97H654.2V34H694.4ZM730.9 34C737.1 34 741.9 35.7 745.2 39C748.5 42.3 750.2 46.6 750.2 52C750.2 55.7 749.3 59 747.4 61.9C745.5 64.7 743 66.8 739.7 68.1L751.7 97H739L728.5 70.7H716.3V97H704.5V34H730.9ZM716.3 60.3H729.3C734.8 60.3 737.5 57.5 737.5 52C737.5 49.6 736.8 47.7 735.5 46.4C734.2 45.1 732.3 44.4 729.7 44.4H716.3V60.3V60.3ZM778.5 32.8C784.5 32.8 789.4 34.4 793.2 37.5C797.1 40.6 799 45.2 799 51.4V52.5H787V51.7C787 49 786.2 46.9 784.7 45.3C783.2 43.7 781.1 42.9 778.4 42.9C775.6 42.9 773.4 43.5 771.9 44.8C770.4 46.1 769.6 47.7 769.6 49.7C769.6 51.4 770.1 52.9 771.1 54C772.2 55.1 773.5 55.9 775 56.6C776.5 57.3 778.7 58 781.5 58.9C785.4 60.1 788.6 61.3 791.1 62.6C793.6 63.8 795.8 65.7 797.5 68.2C799.3 70.7 800.2 74 800.2 78.1C800.2 85 798.2 90 794.2 93.3C790.3 96.5 784.8 98.1 777.9 98.1C774 98.1 770.3 97.4 767 95.9C763.7 94.4 761.1 92.1 759.1 89.2C757.2 86.3 756.2 82.7 756.2 78.5V76.5H768.5L768.4 78C768.4 81 769.3 83.4 771 85.3C772.8 87.1 775.3 88 778.5 88C781.8 88 784.2 87.3 785.7 85.9C787.2 84.4 788 82.7 788 80.6C788 78.5 787.4 76.8 786.3 75.5C785.2 74.2 783.9 73.1 782.2 72.4C780.5 71.6 778.3 70.7 775.4 69.8C771.6 68.5 768.5 67.3 766.1 66.1C763.8 64.8 761.7 63 760 60.5C758.3 58 757.5 54.6 757.5 50.5C757.5 46.7 758.4 43.5 760.3 40.8C762.2 38.1 764.8 36.1 767.9 34.8C771.1 33.5 774.6 32.8 778.5 32.8Z" fill="url(#paint2_linear_498_1310)"/>
<path d="M170.2 148C172.7 151.7 171.3 156.8 167.3 158C163.1 159.4 158.6 160.5 154.1 159.1C151.9 158.4 149.6 156.3 148.2 160.2C148.1 160.6 146.7 160.7 145.9 160.7C142.7 160.6 139.5 160 136.3 160.3C135.4 160.4 134.7 159.8 134.7 159.1C134.7 158 135.5 156.7 133.3 156.8C132.6 156.8 132.9 155.8 133.4 155.3C133.9 154.8 134.4 154.3 134.5 153.5C134.8 152 135.1 150.7 132.8 150.8C131.6 150.9 130.6 149.9 129.3 149.4C128.8 150.4 128.3 151.4 128.5 152.4C129 155.2 126.7 157.1 126.4 159.6C126.3 161 120.8 161.3 120 160C119.4 159.1 120.3 158.7 120.8 158.3C121.4 157.8 122.5 158.4 122.9 157.2C121.5 157.2 120.2 157.2 118.9 157.2C118.5 157.2 118 156.9 117.9 156.4C117.7 155.9 118.1 155.4 118.5 155.3C123.3 154.1 121.4 150.2 121.3 147.5C121.3 143.7 118.9 140.7 116.1 138.4C112.9 135.8 112.1 132.8 112.9 128.9C113.5 125.8 113.5 122.6 114.5 119.5C115.2 117.2 112.8 117.5 111.9 117.4C109.9 117.3 108 117.3 106.4 115.7C106.8 114.2 108.5 114 110 113.3C108.3 112.5 106.2 112.6 105.7 110.1C105.5 108.8 105.7 108.5 106.8 108.4C108 108.3 109.2 108.2 110.3 108.1C111.4 108.1 112.2 107.8 113 107.1C116.8 103.6 123 105.2 124.8 110C127.7 118.2 132.7 124.7 139 130.6C144.8 136.2 150.5 142 153.7 149.8C155.2 153.4 157.2 154.2 160.9 154.2C165.7 154.4 168.5 152.3 170.2 148Z" fill="url(#paint3_linear_498_1310)"/>
<path d="M161.8 123.5V109.5H164V115.7L168.5 109.5H171.5L167.3 115L171.7 123.6H168.8L165.8 117L164 119.4V123.6L161.8 123.5Z" fill="#FAF0CC"/>
<path d="M172.3 119.8V117.1H176.5V119.8H172.3Z" fill="#FAF0CC"/>
<path d="M177.6 120.2L179.6 119.9C179.7 120.9 180.1 121.5 180.8 121.5C181.3 121.5 181.7 121.2 182 120.7C182.3 120.2 182.5 119.1 182.6 117.5C182.3 117.9 182 118.2 181.7 118.4C181.4 118.6 181 118.7 180.6 118.7C179.8 118.7 179 118.3 178.4 117.4C177.8 116.6 177.4 115.5 177.4 114.1C177.4 112.6 177.7 111.5 178.4 110.6C179.1 109.8 179.9 109.3 180.9 109.3C182 109.3 182.9 109.8 183.7 110.9C184.4 112 184.8 113.8 184.8 116.3C184.8 118.8 184.4 120.7 183.7 121.9C182.9 123 182 123.6 180.8 123.6C180 123.6 179.3 123.3 178.7 122.7C178.1 122.3 177.8 121.5 177.6 120.2ZM182.4 114.4C182.4 113.5 182.2 112.8 181.9 112.4C181.6 111.9 181.2 111.7 180.8 111.7C180.4 111.7 180.1 111.9 179.8 112.3C179.5 112.7 179.4 113.3 179.4 114.2C179.4 115.1 179.5 115.8 179.8 116.2C180.1 116.6 180.4 116.8 180.9 116.8C181.3 116.8 181.6 116.6 181.9 116.2C182.3 115.8 182.4 115.2 182.4 114.4Z" fill="#FAF0CC"/>
<path d="M166.7 143.5V131.7H163.4V129.3H172.2V131.7H168.9V143.5H166.7Z" fill="#FAF0CC"/>
<path d="M172.6 143.5L176.4 136.1L172.9 129.3H175.5L177.7 133.5L179.9 129.3H182.5L179 136.1L182.8 143.5H180.1L177.6 138.7L175.1 143.5H172.6Z" fill="#FAF0CC"/>
<path d="M66.1004 82.3L55.4004 73.6L56.8004 71.8L61.6004 75.7L59.7004 68.2L61.6004 65.8L63.1004 72.5L72.5004 74.3L70.6004 76.6L63.6004 75L64.2004 77.9L67.4004 80.5L66.1004 82.3Z" fill="#FAF0CC"/>
<path d="M70.1002 71.7L68.2002 69.8L71.2002 66.8L73.1002 68.7L70.1002 71.7Z" fill="#FAF0CC"/>
<path d="M74.2998 68.2L75.6998 66.6C76.3998 67.3 77.0998 67.4 77.5998 67C77.9998 66.7 78.0998 66.2 77.9998 65.7C77.8998 65.1 77.3998 64.2 76.3998 63C76.3998 63.5 76.3998 63.9 76.2998 64.2C76.1998 64.6 75.8998 64.9 75.5998 65.2C74.8998 65.8 74.0998 65.9 73.0998 65.7C72.0998 65.5 71.0998 64.9 70.1998 63.9C69.2998 62.8 68.7998 61.7 68.7998 60.6C68.7998 59.5 69.1998 58.6 69.8998 58C70.7998 57.3 71.7998 57.1 73.0998 57.4C74.3998 57.7 75.7998 58.8 77.3998 60.7C78.9998 62.6 79.8998 64.3 80.0998 65.6C80.1998 66.9 79.7998 68 78.8998 68.8C78.2998 69.4 77.4998 69.6 76.6998 69.5C75.9998 69.4 75.1998 69 74.2998 68.2ZM74.2998 60.6C73.6998 59.9 73.1998 59.5 72.5998 59.4C72.0998 59.3 71.5998 59.3 71.2998 59.6C70.9998 59.9 70.8998 60.2 70.8998 60.7C70.8998 61.2 71.2998 61.7 71.7998 62.4C72.3998 63.1 72.8998 63.5 73.3998 63.6C73.8998 63.7 74.2998 63.6 74.5998 63.4C74.8998 63.1 74.9998 62.8 74.9998 62.3C75.0998 61.8 74.7998 61.2 74.2998 60.6Z" fill="#FAF0CC"/>
<path d="M86.4996 62.5L79.5996 50.5L82.5996 48.8L89.0996 55.9L86.1996 46.7L89.1996 45L95.9996 57L94.1996 58.1L88.7996 48.7L92.2996 59.2L90.3996 60.3L82.8996 52L88.2996 61.4L86.4996 62.5Z" fill="#FAF0CC"/>
<path d="M96.5004 49.3L94.5004 49.6C94.3004 48.6 94.4004 47.8 94.8004 47.1C95.1004 46.5 95.8004 46 96.7004 45.6C97.5004 45.3 98.2004 45.1 98.8004 45.2C99.3004 45.3 99.8004 45.4 100.2 45.8C100.6 46.1 101 46.8 101.4 47.9L102.6 50.8C102.9 51.6 103.2 52.2 103.4 52.5C103.6 52.9 103.9 53.2 104.3 53.6L102.3 54.4L101.6 53.5C101.4 54 101.2 54.5 100.9 54.9C100.6 55.3 100.2 55.5 99.8004 55.7C99.1004 56 98.4004 56 97.7004 55.7C97.0004 55.4 96.5004 54.8 96.2004 54C96.0004 53.5 95.9004 53 95.9004 52.5C95.9004 52 96.1004 51.6 96.3004 51.2C96.6004 50.8 97.0004 50.4 97.7004 49.9C98.5004 49.3 99.1004 48.8 99.4004 48.5C99.2004 48 99.0004 47.7 98.9004 47.5C98.8004 47.4 98.6004 47.3 98.3004 47.3C98.1004 47.3 97.8004 47.3 97.4004 47.5C97.0004 47.6 96.8004 47.8 96.7004 48.1C96.5004 48.4 96.4004 48.8 96.5004 49.3ZM100 50.2C99.8004 50.4 99.4004 50.7 99.0004 51.1C98.4004 51.5 98.1004 51.9 98.0004 52.1C97.9004 52.4 97.9004 52.7 98.0004 53C98.1004 53.4 98.4004 53.6 98.7004 53.8C99.0004 54 99.3004 54 99.6004 53.8C99.9004 53.7 100.1 53.5 100.3 53.2C100.5 52.9 100.6 52.6 100.6 52.3C100.6 52 100.5 51.5 100.2 50.8L100 50.2Z" fill="#FAF0CC"/>
<path d="M112.6 51.1L110.5 51.7L109.1 46.8C108.8 45.8 108.6 45.2 108.4 44.9C108.2 44.6 108 44.4 107.7 44.3C107.4 44.2 107.2 44.2 106.9 44.3C106.6 44.4 106.3 44.6 106.1 44.9C105.9 45.2 105.8 45.6 105.8 46C105.8 46.4 106 47.2 106.3 48.3L107.6 52.6L105.5 53.2L102.7 43.6L104.6 43L105 44.4C105.2 43.8 105.5 43.2 105.8 42.8C106.1 42.4 106.6 42.1 107.1 42C107.7 41.8 108.3 41.8 108.8 42C109.3 42.2 109.7 42.5 110 43C110.3 43.4 110.6 44.1 110.9 45.1L112.6 51.1Z" fill="#FAF0CC"/>
<path d="M121.8 49.5L119.7 49.9L118.9 44.9C118.7 43.9 118.6 43.2 118.4 42.9C118.3 42.6 118.1 42.3 117.8 42.2C117.5 42.1 117.3 42 117 42.1C116.6 42.2 116.3 42.3 116.1 42.6C115.8 42.9 115.7 43.2 115.7 43.7C115.7 44.1 115.7 44.9 115.9 46L116.7 50.5L114.6 50.9L112.9 41.1L114.9 40.8L115 42C115.3 41.4 115.6 40.9 116 40.5C116.4 40.1 116.9 39.9 117.4 39.8C118 39.7 118.6 39.8 119.1 40C119.6 40.2 120 40.6 120.2 41.1C120.4 41.6 120.7 42.3 120.8 43.3L121.8 49.5Z" fill="#FAF0CC"/>
<path d="M128.2 45.9L130.4 46.2C130.2 47.2 129.8 48 129.2 48.5C128.6 49 127.9 49.3 127 49.4C125.8 49.5 124.8 49.1 124.1 48.3C123.3 47.4 122.8 46.1 122.7 44.4C122.6 42.7 122.9 41.4 123.6 40.3C124.2 39.4 125 38.9 126.1 38.9C127.3 38.8 128.2 39.2 128.9 40C129.7 40.9 130.2 42.4 130.3 44.3V44.6L124.9 44.9C125 45.7 125.2 46.3 125.5 46.7C125.9 47.1 126.3 47.3 126.8 47.3C127.6 47.3 128 46.8 128.2 45.9ZM128.1 43.2C128 42.4 127.8 41.8 127.5 41.5C127.2 41.1 126.8 41 126.3 41C125.8 41 125.5 41.3 125.2 41.7C124.9 42.1 124.8 42.7 124.8 43.5L128.1 43.2Z" fill="#FAF0CC"/>
<path d="M134.1 49H132L132.3 39L134.3 39.1V40.5C134.7 39.8 135 39.4 135.3 39.2C135.6 39 135.9 38.9 136.3 38.9C136.8 38.9 137.3 39.1 137.7 39.4L137 41.7C136.7 41.4 136.3 41.2 136 41.2C135.7 41.2 135.4 41.3 135.2 41.5C135 41.7 134.8 42.1 134.7 42.7C134.6 43.3 134.5 44.4 134.5 45.9L134.1 49Z" fill="#FAF0CC"/>
<path d="M137.5 46.3L139.7 46.2C139.8 47.3 140.3 47.9 141.2 48C141.7 48.1 142.1 48 142.4 47.8C142.7 47.6 142.8 47.4 142.9 47.1C142.9 46.9 142.9 46.7 142.8 46.6C142.7 46.5 142.5 46.3 142.1 46.2C140.4 45.5 139.3 44.9 138.9 44.5C138.4 43.9 138.2 43.1 138.3 42.2C138.4 41.3 138.8 40.6 139.4 40.1C140.1 39.6 140.9 39.4 142.1 39.6C143.2 39.7 143.9 40 144.5 40.5C145 41 145.3 41.7 145.4 42.6L143.3 42.8C143.2 42 142.8 41.5 141.9 41.4C141.4 41.3 141 41.4 140.7 41.5C140.5 41.6 140.3 41.8 140.3 42.1C140.3 42.3 140.4 42.5 140.5 42.7C140.7 42.9 141.3 43.2 142.3 43.6C143.5 44.1 144.2 44.6 144.6 45.1C145 45.6 145.1 46.3 145 47.1C144.9 48.1 144.5 48.8 143.7 49.4C143 49.9 142 50.1 140.9 50C139.9 49.9 139 49.5 138.4 48.9C138 48.1 137.6 47.3 137.5 46.3Z" fill="#FAF0CC"/>
<path d="M151.3 46.1C151.6 45.2 152 44.4 152.6 43.7C153.2 43 153.9 42.6 154.6 42.4C155.3 42.2 156 42.2 156.8 42.4C158.1 42.8 158.9 43.6 159.3 44.8C159.7 46 159.8 47.3 159.4 48.6C159.1 49.6 158.7 50.4 158.1 51.1C157.5 51.8 156.8 52.2 156.1 52.5C155.4 52.7 154.6 52.7 153.9 52.5C152.7 52.2 151.9 51.4 151.4 50.3C150.9 49.1 150.9 47.8 151.3 46.1ZM153.4 46.9C153.1 47.9 153.1 48.7 153.3 49.3C153.5 49.9 153.9 50.3 154.5 50.4C155 50.6 155.5 50.4 156.1 50C156.6 49.6 157 48.9 157.3 47.9C157.6 46.9 157.6 46.2 157.4 45.6C157.2 45 156.8 44.6 156.3 44.4C155.8 44.2 155.3 44.4 154.7 44.8C154.1 45.2 153.7 45.9 153.4 46.9Z" fill="#FAF0CC"/>
<path d="M162.1 44.3L163.2 44.7L163.5 44C163.8 43.2 164.2 42.6 164.5 42.3C164.8 42 165.2 41.8 165.6 41.7C166 41.6 166.5 41.7 167.1 41.9C167.7 42.1 168.2 42.4 168.7 42.9L167.8 44.5C167.5 44.3 167.2 44.1 166.9 44C166.6 43.9 166.4 43.9 166.2 44C166 44.1 165.8 44.4 165.6 44.9L165.3 45.6L166.8 46.2L166 48.1L164.5 47.5L161.6 54.9L159.6 54.1L162.5 46.7L161.4 46.3L162.1 44.3Z" fill="#FAF0CC"/>
<path d="M170 58.8L175.6 48.8L172.7 47.1L173.8 45.1L181.6 49.5L180.5 51.5L177.6 49.9L172 60L170 58.8Z" fill="#FAF0CC"/>
<path d="M180.6 61.8L182.1 63.4C181.3 64.1 180.5 64.4 179.7 64.5C178.9 64.5 178.2 64.3 177.5 63.8C176.5 63.1 176 62.2 175.9 61.2C175.8 60 176.2 58.7 177.2 57.3C178.2 55.9 179.2 55.1 180.5 54.7C181.5 54.4 182.5 54.5 183.3 55.1C184.3 55.8 184.8 56.7 184.8 57.7C184.9 59 184.3 60.4 183.2 62L183 62.2L178.6 59.1C178.2 59.8 178 60.4 178 60.9C178 61.4 178.2 61.9 178.6 62.1C179.2 62.6 179.8 62.4 180.6 61.8ZM182.2 59.6C182.6 59 182.8 58.4 182.8 57.9C182.8 57.4 182.6 57 182.2 56.8C181.8 56.5 181.4 56.5 180.9 56.6C180.4 56.8 179.9 57.1 179.5 57.8L182.2 59.6Z" fill="#FAF0CC"/>
<path d="M180.9 65.9L186.5 64L187.6 58.5L189.6 60.2L189 63.1L191.8 62.1L193.7 63.8L188.5 65.6L187.4 71.5L185.4 69.8L186 66.5L182.8 67.6L180.9 65.9Z" fill="#FAF0CC"/>
<path d="M194.2 68.6L193.2 66.9C194.1 66.4 194.9 66.2 195.6 66.3C196.3 66.4 197 66.8 197.7 67.6C198.3 68.3 198.7 68.9 198.8 69.4C198.9 69.9 198.9 70.4 198.7 70.9C198.5 71.4 198 72 197.1 72.8L194.8 74.9C194.2 75.5 193.7 76 193.5 76.3C193.2 76.6 193 77 192.8 77.5L191.3 75.9L191.9 75C191.3 75 190.8 75 190.4 74.8C190 74.6 189.6 74.4 189.2 74C188.7 73.4 188.4 72.8 188.5 72C188.5 71.3 188.9 70.6 189.5 70C189.9 69.6 190.3 69.4 190.8 69.2C191.2 69.1 191.7 69.1 192.1 69.2C192.5 69.3 193.1 69.6 193.8 70.1C194.7 70.7 195.3 71 195.7 71.2C196.1 70.8 196.3 70.5 196.4 70.4C196.5 70.2 196.5 70 196.4 69.8C196.3 69.6 196.2 69.3 195.9 69C195.6 68.7 195.4 68.6 195.1 68.5C195 68.3 194.6 68.4 194.2 68.6ZM194.6 72.2C194.3 72.1 193.9 71.9 193.4 71.5C192.8 71.1 192.4 70.9 192.1 70.9C191.8 70.9 191.5 71 191.3 71.2C191 71.5 190.9 71.8 190.8 72.1C190.8 72.4 190.9 72.7 191.1 73C191.3 73.2 191.6 73.4 192 73.4C192.4 73.5 192.7 73.5 193 73.3C193.3 73.2 193.7 72.9 194.3 72.4L194.6 72.2Z" fill="#FAF0CC"/>
<path d="M195.5 76.1L197.1 77.6C196.4 78.4 196.3 79.2 196.9 79.9C197.2 80.3 197.5 80.6 197.8 80.6C198.1 80.7 198.4 80.6 198.7 80.4C198.9 80.3 199 80.1 199 80C199 79.8 199 79.6 198.8 79.2C198.1 77.5 197.8 76.3 197.8 75.7C197.9 74.9 198.3 74.2 199 73.7C199.7 73.1 200.5 72.9 201.3 73.1C202.1 73.2 202.8 73.7 203.5 74.6C204.1 75.5 204.5 76.2 204.5 76.9C204.5 77.6 204.2 78.3 203.6 79.1L202 77.7C202.5 77.1 202.5 76.4 202 75.7C201.7 75.3 201.4 75 201.1 74.9C200.8 74.8 200.6 74.8 200.4 75C200.2 75.1 200.1 75.3 200.1 75.6C200.1 75.9 200.3 76.5 200.7 77.5C201.2 78.7 201.3 79.6 201.2 80.2C201.1 80.8 200.7 81.4 200 81.9C199.2 82.5 198.4 82.7 197.5 82.5C196.6 82.4 195.8 81.8 195.1 80.9C194.5 80.1 194.2 79.2 194.2 78.4C194.5 77.7 194.8 76.8 195.5 76.1Z" fill="#FAF0CC"/>
<path d="M160.6 218.9C156 218.9 152.2 217.8 148.9 215.5C146 213.5 142.8 211.7 139.7 210L138.7 209.4C136 207.9 134.9 205.8 135.3 203.1C136.5 196.3 134.4 190.3 128.6 183.8C124 178.6 119.8 173 115.8 167.5C114.5 165.8 113.3 164.1 112 162.4C111.5 161.7 111.1 161.5 109.6 161.3C104.4 160.6 100.7 162.1 97.0004 166.5C91.7004 172.8 89.8004 172.6 83.2004 168.8L83.0004 168.7C82.8004 168.6 82.5004 168.4 82.3004 168.3C81.9004 168.1 81.6004 167.9 81.3004 167.8C76.0004 165.9 75.0004 162.3 74.0004 158.9C73.6004 157.3 73.1004 155.6 72.2004 153.8C71.8004 153.2 69.7004 151.5 68.7004 150.7C67.4004 149.7 66.7004 149.1 66.3004 148.6C61.3004 143 52.8004 132.3 52.5004 131.9L51.9004 131.2V126.7L94.4004 127.4L94.2004 65L132.4 65.1L132.3 67.8C132.2 71.2 132.2 75.7 132.2 80.1C132.2 83.5 132.2 86.7 132.2 89.3C132.2 89.6 132.2 89.8 132.2 89.9C132.3 89.9 132.4 90 132.7 90.1C137.5 91.9 142.6 93.9 147.5 96.1C151.2 97.8 155 98.5 159.3 98.4C163.3 98.3 167.3 98.3 171.2 98.3C173.9 98.3 176.6 98.3 179.3 98.3C181.8 98.3 184 98.9 186.1 100.1C187.8 101.1 190.4 102.2 192.8 103.2C195 104.1 197 105 198.7 105.9C199.5 106.3 201.4 107.4 201.3 114.8L202 130.6C203.4 132.2 206.3 135.8 207.1 137.4L207.4 137.9V138.5C207.3 144.5 207.3 149.9 207.4 155.5C207.4 158.5 205.8 160.1 204.4 161.1C199.4 164.7 194.4 168.2 189.5 171.8C182.5 176.9 175.2 182.1 168 187.2C166.9 188 166.6 188.5 166.6 189.9C166.7 194.3 166.7 198.7 166.7 203.1C166.7 206.6 166.7 210.3 166.7 213.8C166.7 217.2 165.1 218.9 161.7 219C161.4 218.9 161 218.9 160.6 218.9ZM140.5 204.4C140.5 204.4 140.7 204.6 141.2 204.9L142.2 205.4C145.5 207.2 148.8 209 152 211.2C154.6 213.1 157.5 213.8 161.5 213.7C161.5 210.1 161.5 206.5 161.5 203C161.5 198.7 161.5 194.3 161.4 190C161.3 186.9 162.4 184.7 165 182.9C172.2 177.8 179.4 172.6 186.4 167.5C191.4 163.9 196.3 160.3 201.3 156.8C202.1 156.2 202.1 156.1 202.1 155.6C202 150.2 202 145 202.1 139.2C201.2 137.8 198.5 134.4 197.6 133.5L196.9 132.8L196.1 114.9V114.8C196.1 113.1 196 111.2 195.8 110.3C194.4 109.6 192.7 108.9 190.9 108.1C188.3 107 185.5 105.8 183.5 104.6C182.3 103.9 181.1 103.5 179.6 103.6C176.8 103.6 174.1 103.6 171.4 103.6C167.6 103.6 163.6 103.6 159.7 103.7C154.6 103.9 150 103 145.5 101C140.7 98.8 135.7 96.9 131 95.1C128.3 94.1 127 92.2 127.1 89.3C127.1 86.8 127.1 83.6 127.1 80.2C127.1 76.9 127.1 73.4 127.1 70.5L99.6004 70.4L99.7004 132.8L59.5004 132C62.5004 135.7 67.2004 141.4 70.3004 145C70.5004 145.2 71.5004 146 72.1004 146.6C74.7004 148.7 76.3004 150.1 76.9004 151.3C78.1004 153.6 78.7004 155.7 79.2004 157.5C80.1004 160.6 80.4004 161.9 83.1004 162.8C83.9004 163.1 84.6004 163.5 85.1004 163.8C85.3004 163.9 85.4004 164 85.6004 164.1L85.8004 164.2C87.5004 165.2 89.4004 166.2 89.9004 166.2C90.4004 166.1 92.3004 163.9 92.9004 163.1C97.7004 157.3 103.3 155.1 110.3 156.1C112.6 156.4 114.6 157.1 116.2 159.3C117.5 161 118.7 162.7 120 164.4C124 169.8 128.1 175.3 132.5 180.3C139.4 188 141.9 195.6 140.5 204C140.5 204.3 140.5 204.3 140.5 204.4Z" fill="url(#paint4_linear_498_1310)"/>
<path d="M131.8 240.2C71.1998 240.2 21.7998 190.9 21.7998 130.2C21.7998 69.5 71.0998 20.2 131.8 20.2C192.5 20.2 241.8 69.5 241.8 130.2C241.8 190.9 192.4 240.2 131.8 240.2ZM131.8 30.3C76.6998 30.3 31.8998 75.1 31.8998 130.2C31.8998 185.3 76.6998 230.1 131.8 230.1C186.9 230.1 231.7 185.3 231.7 130.2C231.7 75.1 186.9 30.3 131.8 30.3Z" fill="url(#paint5_linear_498_1310)"/>
<defs>
<linearGradient id="paint0_linear_498_1310" x1="542.852" y1="246.859" x2="542.852" y2="183.577" gradientUnits="userSpaceOnUse">
<stop stop-color="#FCE7AA"/>
<stop offset="0.689" stop-color="white"/>
<stop offset="1" stop-color="#FCE7AA"/>
</linearGradient>
<linearGradient id="paint1_linear_498_1310" x1="540.685" y1="186.547" x2="545.008" y2="54.0054" gradientUnits="userSpaceOnUse">
<stop offset="0.2574" stop-color="#DB872C"/>
<stop offset="0.6751" stop-color="white"/>
</linearGradient>
<linearGradient id="paint2_linear_498_1310" x1="543.003" y1="128.754" x2="543.003" y2="18.0092" gradientUnits="userSpaceOnUse">
<stop stop-color="#FCE7AA"/>
<stop offset="0.689" stop-color="white"/>
<stop offset="1" stop-color="#FCE7AA"/>
</linearGradient>
<linearGradient id="paint3_linear_498_1310" x1="128.3" y1="142.447" x2="154.611" y2="115.414" gradientUnits="userSpaceOnUse">
<stop stop-color="#DC882E"/>
<stop offset="1" stop-color="white"/>
</linearGradient>
<linearGradient id="paint4_linear_498_1310" x1="181.188" y1="52.7767" x2="97.6641" y2="197.444" gradientUnits="userSpaceOnUse">
<stop stop-color="white"/>
<stop offset="0.2083" stop-color="#F6DFC7"/>
<stop offset="0.6856" stop-color="#DE903B"/>
<stop offset="0.7301" stop-color="#DC882E"/>
</linearGradient>
<linearGradient id="paint5_linear_498_1310" x1="235.264" y1="-8.10258" x2="57.2392" y2="229.756" gradientUnits="userSpaceOnUse">
<stop stop-color="white"/>
<stop offset="0.8501" stop-color="#DC882E"/>
</linearGradient>
</defs>
</svg>
